<svg width="269" height="86" viewBox="0 0 269 86" fill="none" xmlns="http://www.w3.org/2000/svg">
<path d="M268.559 75.3872H152.373V76.1408H268.559V75.3872Z" fill="#000006"/>
<path d="M98.6299 75.3872H0V76.1408H98.6299V75.3872Z" fill="#000006"/>
<path d="M90.7218 0.878906H73.6719V1.63247H81.232L51.118 50.9592L48.1445 23.7683L61.6832 1.63247H69.6862V0.878906H0V1.63247H7.68668L14.804 64.9629H17.9039L37.5477 32.5912L41.1538 64.9629H43.4946L82.181 1.63247H90.7218V0.878906ZM60.8291 1.63247L48.0496 22.5437L45.7721 1.63247H60.8608H60.8291ZM25.4957 50.9592L20.2131 1.63247H34.0681L37.3895 31.3353L25.4641 50.9278L25.4957 50.9592Z" fill="#000006"/>
<path d="M99.7996 26.9395C97.7119 25.3067 94.7701 24.459 91.0058 24.459C87.2416 24.459 84.0467 25.2125 80.9467 26.7511C77.8151 28.2582 75.0947 30.3305 72.7539 32.9051C70.4131 35.4798 68.5785 38.3998 67.2815 41.6025C65.9846 44.8051 65.3203 48.1019 65.3203 51.4615C65.3203 54.0362 65.8264 56.3597 66.9019 58.4006C67.9458 60.4415 69.4958 62.0428 71.5519 63.2045C73.608 64.3663 76.1702 64.9628 79.1753 64.9628C82.1804 64.9628 85.0906 64.3976 87.5263 63.2987C89.9936 62.1998 92.1446 60.7554 93.9793 58.9657C95.8456 57.176 97.3956 55.2921 98.6609 53.2512L97.9966 52.8431C96.5099 55.0723 94.865 56.9876 93.0619 58.6518C91.2273 60.3159 89.2661 61.6032 87.1783 62.5137C85.0589 63.4243 82.8763 63.8953 80.5671 63.8953C78.7641 63.8953 77.309 63.4243 76.1386 62.451C74.9998 61.4776 74.4305 59.6565 74.4305 56.9876C74.4305 55.1979 74.6519 53.157 75.0631 50.9278C75.2845 49.7974 75.5376 48.6357 75.8539 47.474C79.3335 47.2228 82.5916 46.7832 85.66 46.1552C89.0446 45.4331 92.0497 44.4911 94.6436 43.2666C97.2374 42.042 99.2619 40.5977 100.717 38.8708C102.172 37.1439 102.9 35.2286 102.9 33.0935C102.9 30.6759 101.856 28.635 99.768 27.0022L99.7996 26.9395ZM93.663 34.3809C93.0303 36.0136 92.1446 37.5521 90.9742 38.9964C89.8038 40.4407 88.412 41.7281 86.7671 42.8584C85.1538 43.9887 83.3192 44.8993 81.2947 45.5901C79.6498 46.1552 77.91 46.532 76.0753 46.7204C76.3284 45.7784 76.5815 44.8365 76.8978 43.8945C77.6886 41.5083 78.6059 39.2162 79.6498 36.9869C80.6937 34.789 81.8641 32.7795 83.1294 30.9898C84.3947 29.2001 85.7232 27.7872 87.1467 26.7511C88.5701 25.7149 89.9936 25.1811 91.4171 25.1811C92.5875 25.1811 93.4099 25.6207 93.8528 26.4999C94.2956 27.379 94.5487 28.3524 94.5487 29.4199C94.5487 31.084 94.2323 32.7167 93.6313 34.3495L93.663 34.3809Z" fill="#000006"/>
<path opacity="0.12" d="M120.424 58.3378C119.158 60.1903 117.956 61.4777 116.754 62.2626C115.552 63.0476 114.413 63.4244 113.275 63.4244C112.262 63.4244 111.788 62.9848 111.788 62.0742C111.788 61.8858 111.788 61.666 111.82 61.4149C111.82 61.1637 111.883 60.9439 111.946 60.6927L128.869 0.878906H111.124V1.63247H119.032L103.658 55.8888C103.564 56.2969 103.469 56.7679 103.342 57.3645C103.216 57.9611 103.152 58.589 103.152 59.3112C103.152 61.0067 103.785 62.3568 105.019 63.393C106.252 64.4291 108.182 64.9629 110.807 64.9629C113.022 64.9629 114.951 64.4605 116.596 63.4558C118.241 62.451 119.759 60.9125 121.12 58.8716C122.48 56.8307 123.84 54.1933 125.169 51.022L124.409 50.7708C122.986 54.0049 121.657 56.5481 120.424 58.3692V58.3378Z" fill="#000006"/>
<path d="M197.038 50.7394C195.647 53.9734 194.318 56.5167 193.053 58.3378C191.787 60.1903 190.554 61.4776 189.352 62.2626C188.15 63.0475 186.979 63.4243 185.841 63.4243C185.303 63.4243 184.923 63.2987 184.702 63.0161C184.48 62.7335 184.354 62.4196 184.354 61.98C184.354 61.5404 184.417 61.1322 184.544 60.6612L194.381 25.3067H184.322L181.665 35.6682C181.665 35.6682 181.665 35.6054 181.665 35.574C181.665 33.5959 181.444 31.7748 181.001 30.0793C180.558 28.3838 179.799 27.0336 178.692 25.9975C177.616 24.9614 176.066 24.459 174.105 24.459C171.479 24.459 168.886 25.2439 166.323 26.8139C163.761 28.3838 161.389 30.4561 159.269 33.0307C157.15 35.6054 155.473 38.494 154.208 41.6653C152.943 44.8365 152.342 48.0391 152.342 51.2417C152.342 55.4491 153.227 58.8087 155.031 61.2578C156.834 63.7069 159.712 64.9314 163.666 64.9314C165.564 64.9314 167.304 64.429 168.886 63.4243C170.499 62.4196 171.954 61.1008 173.314 59.4367C174.643 57.7726 175.845 55.9201 176.857 53.8164C177.142 53.2512 177.363 52.6547 177.648 52.0895L176.825 56.2655C176.762 56.5481 176.699 56.8934 176.667 57.3016C176.635 57.7098 176.604 58.1808 176.604 58.6832C176.604 60.5357 177.142 62.0428 178.249 63.2045C179.356 64.3663 181.096 64.9314 183.468 64.9314C185.619 64.9314 187.517 64.429 189.13 63.4243C190.775 62.4196 192.262 60.881 193.654 58.8401C195.046 56.7993 196.406 54.1618 197.703 50.9906L196.943 50.7394H197.038ZM174.769 56.1399C173.536 58.118 172.239 59.6879 170.815 60.8496C169.392 62.0114 168 62.6079 166.608 62.6079C165.121 62.6079 163.983 61.98 163.128 60.724C162.274 59.4681 161.863 57.6156 161.863 55.1665C161.863 53.0942 162.148 50.8022 162.717 48.2903C163.287 45.7784 164.046 43.2666 165.026 40.7233C165.975 38.1801 167.082 35.8566 168.316 33.7529C169.55 31.6178 170.847 29.9223 172.207 28.635C173.567 27.3476 174.896 26.6883 176.193 26.6883C177.395 26.6883 178.344 27.065 179.071 27.8186C179.767 28.5722 180.273 29.6083 180.558 30.927C180.843 32.2458 181.001 33.7843 181.001 35.5112C181.001 37.6463 180.748 39.9384 180.21 42.3874C179.672 44.8365 178.945 47.2542 177.996 49.6404C177.047 52.0267 175.971 54.1932 174.738 56.1713L174.769 56.1399Z" fill="#000006"/>
<path d="M265.427 26.9395C263.339 25.3067 260.397 24.459 256.633 24.459C252.869 24.459 249.674 25.2125 246.574 26.7511C243.442 28.2582 240.722 30.3305 238.381 32.9051C236.04 35.4798 234.205 38.3998 232.908 41.6025C231.612 44.8051 230.947 48.1019 230.947 51.4615C230.947 54.0362 231.453 56.3597 232.529 58.4006C233.573 60.4415 235.123 62.0428 237.179 63.2045C239.235 64.3663 241.797 64.9628 244.802 64.9628C247.807 64.9628 250.718 64.3976 253.153 63.2987C255.621 62.1998 257.772 60.7554 259.606 58.9657C261.473 57.176 263.023 55.2921 264.288 53.2512L263.624 52.8431C262.137 55.0723 260.492 56.9876 258.689 58.6518C256.854 60.3159 254.893 61.6032 252.805 62.5137C250.686 63.4243 248.503 63.8953 246.194 63.8953C244.391 63.8953 242.936 63.4243 241.766 62.451C240.627 61.4776 240.057 59.6565 240.057 56.9876C240.057 55.1979 240.279 53.157 240.69 50.9278C240.911 49.7974 241.165 48.6357 241.481 47.474C244.96 47.2228 248.219 46.7832 251.287 46.1552C254.672 45.4331 257.677 44.4911 260.271 43.2666C262.864 42.042 264.889 40.5977 266.344 38.8708C267.799 37.1439 268.527 35.2286 268.527 33.0935C268.527 30.6759 267.483 28.635 265.395 27.0022L265.427 26.9395ZM259.29 34.3809C258.657 36.0136 257.772 37.5521 256.601 38.9964C255.431 40.4407 254.039 41.7281 252.394 42.8584C250.781 43.9887 248.946 44.8993 246.922 45.5901C245.277 46.1552 243.537 46.532 241.702 46.7204C241.955 45.7784 242.208 44.8365 242.525 43.8945C243.316 41.5083 244.233 39.2162 245.277 36.9869C246.321 34.789 247.491 32.7795 248.756 30.9898C250.022 29.2001 251.35 27.7872 252.774 26.7511C254.197 25.7149 255.621 25.1811 257.044 25.1811C258.214 25.1811 259.037 25.6207 259.48 26.4999C259.923 27.379 260.176 28.3524 260.176 29.4199C260.176 31.084 259.859 32.7167 259.258 34.3495L259.29 34.3809Z" fill="#000006"/>
<path d="M230.917 26.2803C229.62 25.0871 227.88 24.522 225.761 24.522C223.863 24.522 222.154 25.0871 220.604 26.2175C219.054 27.3478 217.631 28.8863 216.334 30.8016C215.069 32.7169 213.898 34.8206 212.886 37.1127C212.38 38.2744 211.906 39.4362 211.463 40.6293L215.385 25.3069H199.063V26.0605H205.99L195.646 64.9316H205.231L208.806 50.9908H208.837C209.343 48.9813 209.976 46.8462 210.735 44.5227C211.494 42.1992 212.38 39.9071 213.329 37.6465C214.31 35.3858 215.417 33.3135 216.65 31.4296C217.884 29.5457 219.244 28.0386 220.763 26.9396C222.249 25.8407 223.926 25.2755 225.697 25.2755C227.374 25.2755 228.734 25.6837 229.778 26.4373C229.05 26.0919 228.291 25.8721 227.437 25.8721C224.464 25.8721 222.028 28.2584 222.028 31.2412C222.028 34.2241 224.432 36.6103 227.437 36.6103C230.442 36.6103 232.846 34.2241 232.846 31.2412C232.846 28.6665 232.182 27.4734 230.885 26.2803H230.917Z" fill="#000006"/>
<path opacity="0.12" d="M169.708 8.63454C169.708 8.19496 169.644 7.75538 169.55 7.31581C169.36 6.27966 168.98 5.46331 168.411 4.58416C168.189 4.27017 167.968 3.95619 167.715 3.6736C167.557 3.51661 167.399 3.35962 167.24 3.20263C167.114 3.07704 167.019 2.98284 166.892 2.85725C166.228 2.29208 165.469 1.75831 164.583 1.31873C162.907 0.439576 160.787 0 158.288 0C155.315 0 152.721 0.533771 150.475 1.63271C148.229 2.70026 146.3 4.20738 144.687 6.15407C143.042 8.06937 141.681 10.2986 140.543 12.8419C139.404 15.3852 138.487 18.0854 137.791 20.9741L136.747 25.307H127.763V26.0606H136.589L127.131 65.1829C126.466 67.9146 125.77 70.4892 125.138 72.8755C124.473 75.2932 123.714 77.3969 122.829 79.2494C121.974 81.1019 120.931 82.5462 119.697 83.5823C118.463 84.6499 116.977 85.1522 115.205 85.1522C113.117 85.1522 111.346 84.7441 109.922 83.9277C108.562 83.1741 107.518 82.2322 106.791 81.1333C107.708 81.8554 108.847 82.295 110.112 82.295C113.086 82.295 115.521 79.9087 115.521 76.9259C115.521 73.943 113.117 71.5568 110.112 71.5568C107.107 71.5568 104.703 73.943 104.703 76.9259C104.703 78.9668 105.114 80.1285 105.968 81.4158C106.823 82.7346 108.088 83.8021 109.764 84.6813C111.441 85.5604 113.56 86 116.091 86C119.064 86 121.69 85.4662 123.936 84.3673C126.213 83.2683 128.174 81.7612 129.819 79.8459C131.496 77.9306 132.856 75.7013 133.995 73.1895C135.102 70.6462 136.051 67.946 136.778 65.0573L146.236 26.0606H159.079V25.307H146.426L147.502 20.8799C148.166 18.1168 148.862 15.5422 149.526 13.1559C150.191 10.7696 150.95 8.63454 151.741 6.78204C152.563 4.92954 153.575 3.48521 154.777 2.44907C156.011 1.38153 157.466 0.879153 159.174 0.879153C161.325 0.879153 163.097 1.28733 164.552 2.13509C164.963 2.38627 165.342 2.63746 165.69 2.92004C166.07 3.20263 166.418 3.51661 166.734 3.86199C166.734 3.86199 166.734 3.86199 166.766 3.89339C167.082 4.20738 167.367 4.55276 167.62 4.92954C166.703 4.20737 165.564 3.7678 164.299 3.7678C161.325 3.7678 158.889 6.15407 158.889 9.13691C158.889 12.1198 161.294 14.506 164.299 14.506C167.304 14.506 169.708 12.1198 169.708 9.13691C169.708 9.01132 169.708 8.88572 169.708 8.76013C169.708 8.72873 169.708 8.69733 169.708 8.66594V8.63454Z" fill="#000006"/>
</svg>
