<svg width="42" height="42" viewBox="0 0 42 42" fill="none" xmlns="http://www.w3.org/2000/svg">
<g clip-path="url(#clip0_616_4520)">
<path d="M0 42H21.0046H42V0H21.0046H0V42Z" fill="#000006"/>
<path d="M28.0814 27.9227L27.6554 26.6539L23.4322 13.8641C23.3304 13.5492 23.1359 13.2899 22.8766 13.0954C22.8488 13.0769 22.821 13.0583 22.7932 13.0398C22.5339 12.8731 22.2283 12.7712 21.9041 12.7712H18.4219V13.2158C19.1165 13.2158 19.7277 13.5121 19.9407 14.1604L20.3667 15.4292L24.5899 28.2098C24.6918 28.5247 24.8863 28.784 25.1456 28.9785C25.1734 28.997 25.2011 29.0156 25.2289 29.0341C25.4882 29.2008 25.7939 29.3027 26.118 29.3027H29.6003V28.8489C28.9057 28.8489 28.2944 28.5618 28.0814 27.9042" fill="white"/>
<path d="M20.3295 27.9227L19.9034 26.6539L15.6803 13.8641C15.5784 13.5492 15.3839 13.2899 15.1246 13.0954C15.0968 13.0769 15.069 13.0583 15.0413 13.0398C14.7819 12.8731 14.4763 12.7712 14.1522 12.7712H10.6699V13.2158C11.3645 13.2158 11.9758 13.5121 12.1888 14.1604L12.6148 15.4292L16.8379 28.2098C16.9398 28.5247 17.1343 28.784 17.3936 28.9785C17.4214 28.997 17.4492 29.0156 17.477 29.0341C17.7363 29.2008 18.0419 29.3027 18.3661 29.3027H21.8483V28.8489C21.1537 28.8489 20.5425 28.5618 20.3295 27.9042" fill="white"/>
<path d="M31.3222 12.7712H27.9141V13.225L29.7478 13.9382L29.896 15.9849H30.3498L31.3222 12.7712Z" fill="white"/>
</g>
<defs>
<clipPath id="clip0_616_4520">
<rect width="42" height="42" fill="white"/>
</clipPath>
</defs>
</svg>
