<svg width="132" height="40" viewBox="0 0 132 40" fill="none" xmlns="http://www.w3.org/2000/svg">
<g clip-path="url(#clip0_616_4504)">
<path d="M83.8398 4.60029C83.8398 1.94238 85.5631 0.102295 88.4401 0.102295C90.8935 0.102295 92.1348 1.50427 92.4415 2.7602L91.2586 2.95005C91.025 2.03001 90.1049 1.08075 88.3816 1.08075C86.2933 1.08075 85.0374 2.49733 85.0374 4.60029C85.0374 6.70324 86.2495 8.09061 88.3962 8.09061C90.543 8.09061 91.4923 6.58641 91.4923 5.47652V5.37429H88.3816V4.39583H92.5584V8.85001H91.6821L91.5507 7.40423C90.9957 8.4265 89.7982 9.08367 88.2356 9.08367C85.5339 9.08367 83.8544 7.22898 83.8544 4.58568L83.8398 4.60029Z" fill="#0C0E12"/>
<path d="M94.706 0.335938H98.8681C101.132 0.335938 101.774 1.63568 101.774 2.8332C101.774 3.79705 101.249 4.87774 99.7444 5.19903L102.066 8.84999H100.694L98.4446 5.34507H95.8597V8.84999H94.6914V0.335938H94.706ZM98.6929 4.38121C100.095 4.38121 100.533 3.63641 100.533 2.8332C100.533 2.02999 100.095 1.329 98.6929 1.329H95.8743V4.38121H98.6783H98.6929Z" fill="#0C0E12"/>
<path d="M103.088 4.60029C103.088 1.85476 104.928 0.102295 107.688 0.102295C110.448 0.102295 112.303 1.85476 112.303 4.60029C112.303 7.34581 110.463 9.09828 107.688 9.09828C104.913 9.09828 103.088 7.31661 103.088 4.60029ZM107.688 8.11982C109.762 8.11982 111.062 6.74706 111.062 4.60029C111.062 2.45352 109.762 1.08075 107.688 1.08075C105.614 1.08075 104.315 2.45352 104.315 4.60029C104.315 6.74706 105.614 8.11982 107.688 8.11982Z" fill="#0C0E12"/>
<path d="M115.004 0.335938V5.41808C115.004 6.93689 115.997 8.06139 117.735 8.06139C119.473 8.06139 120.451 6.93689 120.451 5.41808V0.335938H121.634V5.4911C121.634 7.59406 120.232 9.09826 117.72 9.09826C115.209 9.09826 113.807 7.59406 113.807 5.4911V0.335938H114.975H115.004Z" fill="#0C0E12"/>
<path d="M124 8.84999V0.335938H128.06C129.9 0.335938 131.054 1.3436 131.054 2.90622C131.054 4.46883 129.827 5.52031 127.943 5.52031H125.183V8.83539H124.015L124 8.84999ZM127.885 4.54185C129.068 4.54185 129.812 3.91389 129.812 2.90622C129.812 1.89855 129.082 1.3144 127.899 1.3144H125.183V4.55646H127.899L127.885 4.54185Z" fill="#0C0E12"/>
<path d="M123.988 35.0493H70.3477V35.3998H123.988V35.0493Z" fill="#0C0E12"/>
<path d="M45.5349 35.0493H0V35.3998H45.5349V35.0493Z" fill="#0C0E12"/>
<path d="M41.8839 0.394287H34.0124V0.74478H37.5027L23.5999 23.6875L22.2271 11.0405L28.4775 0.74478H32.1723V0.394287H0V0.74478H3.54874L6.83461 30.2008H8.26579L17.3348 15.1442L18.9996 30.2008H20.0803L37.9409 0.74478H41.8839V0.394287ZM28.0832 0.74478L22.1833 10.471L21.1318 0.74478H28.0978H28.0832ZM11.7707 23.6875L9.33187 0.74478H15.7284L17.2618 14.56L11.7561 23.6729L11.7707 23.6875Z" fill="#0C0E12"/>
<path d="M46.0745 12.5155C45.1106 11.7561 43.7525 11.3618 42.0146 11.3618C40.2767 11.3618 38.8017 11.7123 37.3706 12.4279C35.9248 13.1289 34.6688 14.0927 33.5882 15.2903C32.5075 16.4878 31.6604 17.8459 31.0617 19.3355C30.4629 20.8251 30.1562 22.3585 30.1562 23.9211C30.1562 25.1187 30.3899 26.1993 30.8864 27.1486C31.3684 28.0979 32.084 28.8426 33.0332 29.383C33.9825 29.9233 35.1654 30.2008 36.5527 30.2008C37.9401 30.2008 39.2837 29.9379 40.4082 29.4268C41.5473 28.9157 42.5403 28.2439 43.3874 27.4115C44.249 26.5791 44.9646 25.7028 45.5487 24.7536L45.242 24.5637C44.5557 25.6006 43.7963 26.4914 42.9638 27.2654C42.1168 28.0394 41.2114 28.6382 40.2475 29.0617C39.2691 29.4852 38.2614 29.7043 37.1953 29.7043C36.3629 29.7043 35.6911 29.4852 35.1508 29.0325C34.625 28.5798 34.3622 27.7328 34.3622 26.4914C34.3622 25.659 34.4644 24.7098 34.6542 23.6729C34.7565 23.1471 34.8733 22.6068 35.0193 22.0665C36.6258 21.9496 38.13 21.7452 39.5465 21.4531C41.1092 21.1172 42.4965 20.6791 43.694 20.1095C44.8916 19.54 45.8262 18.8682 46.498 18.065C47.1698 17.2618 47.5056 16.3709 47.5056 15.3779C47.5056 14.2534 47.0237 13.3041 46.0599 12.5447L46.0745 12.5155ZM43.2413 15.9766C42.9492 16.736 42.5403 17.4516 42 18.1234C41.4596 18.7952 40.8171 19.3939 40.0577 19.9197C39.3129 20.4454 38.4659 20.8689 37.5312 21.1902C36.7718 21.4531 35.9686 21.6283 35.1216 21.716C35.2384 21.2778 35.3552 20.8397 35.5013 20.4016C35.8664 19.2917 36.2899 18.2256 36.7718 17.1888C37.2537 16.1665 37.7941 15.2318 38.3782 14.3994C38.9624 13.567 39.5757 12.9098 40.2329 12.4279C40.8901 11.946 41.5473 11.6977 42.2044 11.6977C42.7448 11.6977 43.1245 11.9022 43.3289 12.3111C43.5334 12.72 43.6502 13.1727 43.6502 13.6692C43.6502 14.4432 43.5042 15.2026 43.2267 15.962L43.2413 15.9766Z" fill="#0C0E12"/>
<path d="M55.5968 27.1194C55.0126 27.981 54.4577 28.5798 53.9027 28.9449C53.3478 29.3099 52.822 29.4852 52.2963 29.4852C51.829 29.4852 51.6099 29.2807 51.6099 28.8572C51.6099 28.7696 51.6099 28.6674 51.6245 28.5505C51.6245 28.4337 51.6537 28.3315 51.6829 28.2147L59.496 0.394287H51.3032V0.74478H54.9542L47.8567 25.9803C47.8129 26.1701 47.7691 26.3892 47.7107 26.6666C47.6523 26.9441 47.623 27.2362 47.623 27.5721C47.623 28.3607 47.9151 28.9887 48.4847 29.4706C49.0542 29.9525 49.9451 30.2008 51.1572 30.2008C52.1795 30.2008 53.0703 29.9671 53.8297 29.4998C54.5891 29.0325 55.2901 28.3169 55.918 27.3676C56.546 26.4184 57.174 25.1917 57.7873 23.7167L57.4368 23.5998C56.7797 25.104 56.1663 26.2869 55.5968 27.134V27.1194Z" fill="#0C0E12"/>
<path d="M90.9673 23.5853C90.3247 25.0895 89.7114 26.2724 89.1272 27.1194C88.5431 27.981 87.9735 28.5798 87.4186 28.9449C86.8636 29.31 86.3233 29.4852 85.7975 29.4852C85.5493 29.4852 85.374 29.4268 85.2718 29.2954C85.1696 29.1639 85.1111 29.0179 85.1111 28.8134C85.1111 28.609 85.1404 28.4191 85.1988 28.2001L89.7406 11.7561H85.0965L83.8698 16.5754C83.8698 16.5754 83.8698 16.5462 83.8698 16.5316C83.8698 15.6115 83.7676 14.7645 83.5631 13.9759C83.3587 13.1873 83.0082 12.5593 82.4971 12.0774C82.0005 11.5955 81.2849 11.3618 80.3795 11.3618C79.1674 11.3618 77.9699 11.7269 76.7869 12.4571C75.604 13.1873 74.5087 14.1512 73.5303 15.3487C72.5518 16.5462 71.7778 17.8897 71.1937 19.3647C70.6095 20.8397 70.332 22.3293 70.332 23.8189C70.332 25.7758 70.7409 27.3385 71.5734 28.4776C72.4058 29.6167 73.7347 30.1862 75.5602 30.1862C76.4365 30.1862 77.2397 29.9525 77.9699 29.4852C78.7147 29.0179 79.3864 28.4045 80.0144 27.6305C80.6278 26.8565 81.1827 25.9949 81.65 25.0164C81.7815 24.7536 81.8837 24.4761 82.0151 24.2132L81.6354 26.1555C81.6062 26.287 81.577 26.4476 81.5624 26.6375C81.5478 26.8273 81.5332 27.0464 81.5332 27.28C81.5332 28.1417 81.7815 28.8426 82.2926 29.383C82.8037 29.9233 83.6069 30.1862 84.7022 30.1862C85.6953 30.1862 86.5715 29.9525 87.3163 29.4852C88.0757 29.0179 88.7621 28.3023 89.4047 27.3531C90.0473 26.4038 90.6752 25.1771 91.274 23.7021L90.9235 23.5853H90.9673ZM80.6862 26.0971C80.1166 27.0172 79.5179 27.7474 78.8607 28.2877C78.2035 28.828 77.5609 29.1055 76.9184 29.1055C76.232 29.1055 75.7063 28.8134 75.312 28.2293C74.9176 27.6451 74.7278 26.7835 74.7278 25.6444C74.7278 24.6805 74.8592 23.6145 75.1221 22.4462C75.385 21.2778 75.7355 20.1095 76.1882 18.9266C76.6263 17.7437 77.1374 16.663 77.707 15.6846C78.2765 14.6915 78.8753 13.9029 79.5033 13.3041C80.1312 12.7054 80.7446 12.3987 81.3434 12.3987C81.8983 12.3987 82.3364 12.5739 82.6723 12.9244C82.9936 13.2749 83.2273 13.7569 83.3587 14.3702C83.4901 14.9836 83.5631 15.6992 83.5631 16.5024C83.5631 17.4954 83.4463 18.5615 83.198 19.7006C82.9498 20.8397 82.6139 21.9642 82.1758 23.0741C81.7377 24.184 81.2411 25.1917 80.6716 26.1117L80.6862 26.0971Z" fill="#0C0E12"/>
<path d="M122.541 12.5155C121.577 11.7561 120.219 11.3618 118.481 11.3618C116.744 11.3618 115.269 11.7123 113.837 12.4279C112.392 13.1289 111.136 14.0927 110.055 15.2903C108.974 16.4878 108.127 17.8459 107.528 19.3355C106.93 20.8251 106.623 22.3585 106.623 23.9211C106.623 25.1187 106.857 26.1993 107.353 27.1486C107.835 28.0979 108.551 28.8426 109.5 29.383C110.449 29.9233 111.632 30.2008 113.02 30.2008C114.407 30.2008 115.75 29.9379 116.875 29.4268C118.014 28.9157 119.007 28.2439 119.854 27.4115C120.716 26.5791 121.431 25.7028 122.016 24.7536L121.709 24.5637C121.022 25.6006 120.263 26.4914 119.431 27.2654C118.584 28.0394 117.678 28.6382 116.714 29.0617C115.736 29.4852 114.728 29.7043 113.662 29.7043C112.83 29.7043 112.158 29.4852 111.618 29.0325C111.092 28.5798 110.829 27.7328 110.829 26.4914C110.829 25.659 110.931 24.7098 111.121 23.6729C111.223 23.1471 111.34 22.6068 111.486 22.0665C113.093 21.9496 114.597 21.7452 116.013 21.4531C117.576 21.1172 118.963 20.6791 120.161 20.1095C121.358 19.54 122.293 18.8682 122.965 18.065C123.637 17.2618 123.972 16.3709 123.972 15.3779C123.972 14.2534 123.491 13.3041 122.527 12.5447L122.541 12.5155ZM119.708 15.9766C119.416 16.736 119.007 17.4516 118.467 18.1234C117.926 18.7952 117.284 19.3939 116.524 19.9197C115.78 20.4454 114.933 20.8689 113.998 21.1902C113.239 21.4531 112.435 21.6283 111.588 21.716C111.705 21.2778 111.822 20.8397 111.968 20.4016C112.333 19.2917 112.757 18.2256 113.239 17.1888C113.721 16.1665 114.261 15.2318 114.845 14.3994C115.429 13.567 116.043 12.9098 116.7 12.4279C117.357 11.946 118.014 11.6977 118.671 11.6977C119.212 11.6977 119.591 11.9022 119.796 12.3111C120 12.72 120.117 13.1727 120.117 13.6692C120.117 14.4432 119.971 15.2026 119.694 15.962L119.708 15.9766Z" fill="#0C0E12"/>
<path d="M106.608 12.2089C106.009 11.654 105.206 11.3911 104.227 11.3911C103.351 11.3911 102.562 11.654 101.847 12.1797C101.131 12.7055 100.474 13.4211 99.8752 14.3119C99.291 15.2027 98.7507 16.1812 98.2833 17.2473C98.0497 17.7876 97.8306 18.328 97.6262 18.8829L99.437 11.7562H91.9014V12.1067H95.0997L90.3242 30.1863H94.7492L96.3994 23.7022H96.414C96.6477 22.7675 96.9398 21.7745 97.2903 20.6938C97.6408 19.6131 98.0497 18.547 98.4878 17.4955C98.9405 16.4441 99.4516 15.4802 100.021 14.604C100.591 13.7277 101.219 13.0267 101.92 12.5156C102.606 12.0045 103.38 11.7416 104.198 11.7416C104.972 11.7416 105.6 11.9315 106.082 12.2819C105.746 12.1213 105.395 12.0191 105.001 12.0191C103.628 12.0191 102.504 13.129 102.504 14.5163C102.504 15.9037 103.614 17.0136 105.001 17.0136C106.388 17.0136 107.498 15.9037 107.498 14.5163C107.498 13.3188 107.192 12.7639 106.593 12.2089H106.608Z" fill="#0C0E12"/>
<path d="M78.3488 4.00142C78.3488 3.79696 78.3196 3.59251 78.2758 3.38805C78.1882 2.90613 78.013 2.52642 77.7501 2.11752C77.6479 1.97148 77.5456 1.82544 77.4288 1.694C77.3558 1.62098 77.2828 1.54797 77.2097 1.47495C77.1513 1.41653 77.1075 1.37272 77.0491 1.3143C76.7424 1.05143 76.3919 0.803168 75.983 0.598714C75.209 0.189806 74.2306 -0.0146484 73.0768 -0.0146484C71.7041 -0.0146484 70.5066 0.233617 69.4697 0.744753C68.4328 1.24128 67.542 1.94227 66.7972 2.84771C66.0378 3.73855 65.4098 4.77542 64.8841 5.95833C64.3583 7.14125 63.9348 8.39718 63.6135 9.74074L63.1316 11.7561H58.9841V12.1066H63.0586L58.692 30.303C58.3854 31.5735 58.0641 32.771 57.772 33.8809C57.4653 35.0054 57.1148 35.9839 56.7059 36.8455C56.3116 37.7071 55.8297 38.3789 55.2601 38.8609C54.6906 39.3574 54.0042 39.591 53.1864 39.591C52.2225 39.591 51.4047 39.4012 50.7475 39.0215C50.1196 38.671 49.6376 38.2329 49.3017 37.7218C49.7253 38.0576 50.251 38.2621 50.8352 38.2621C52.2079 38.2621 53.3324 37.1522 53.3324 35.7648C53.3324 34.3775 52.2225 33.2676 50.8352 33.2676C49.4478 33.2676 48.3379 34.3775 48.3379 35.7648C48.3379 36.7141 48.5277 37.2544 48.922 37.8532C49.3164 38.4665 49.9005 38.9631 50.6745 39.372C51.4485 39.7809 52.427 39.9854 53.5953 39.9854C54.9681 39.9854 56.1802 39.7371 57.217 39.226C58.2685 38.7148 59.174 38.0138 59.9334 37.123C60.7074 36.2322 61.3353 35.1953 61.8611 34.027C62.3722 32.8441 62.8103 31.5881 63.1462 30.2446L67.5128 12.1066H73.4419V11.7561H67.6004L68.0969 9.69693C68.4036 8.41179 68.7249 7.21427 69.0316 6.10437C69.3383 4.99448 69.6888 4.00142 70.0538 3.13979C70.4335 2.27816 70.9009 1.60638 71.4558 1.12445C72.0254 0.627922 72.6971 0.39426 73.4858 0.39426C74.4788 0.39426 75.2966 0.58411 75.9684 0.978415C76.1583 1.09525 76.3335 1.21208 76.4942 1.34351C76.6694 1.47495 76.83 1.62099 76.9761 1.78163C76.9761 1.78163 76.9761 1.78163 76.9907 1.79623C77.1367 1.94227 77.2682 2.10291 77.385 2.27816C76.9615 1.94227 76.4357 1.73782 75.8516 1.73782C74.4788 1.73782 73.3543 2.84771 73.3543 4.23508C73.3543 5.62245 74.4642 6.73234 75.8516 6.73234C77.2389 6.73234 78.3488 5.62245 78.3488 4.23508C78.3488 4.17666 78.3488 4.11825 78.3488 4.05983C78.3488 4.04523 78.3488 4.03062 78.3488 4.01602V4.00142Z" fill="#0C0E12"/>
</g>
<defs>
<clipPath id="clip0_616_4504">
<rect width="131.055" height="40" fill="white"/>
</clipPath>
</defs>
</svg>
