<svg width="227" height="72" viewBox="0 0 227 72" fill="none" xmlns="http://www.w3.org/2000/svg">
<path d="M0 2.08345V0.70752H58.3847V2.08345H0ZM12.3104 54.3561L6.32167 0.70752H16.7198L21.2017 42.6372L33.1066 22.9439H34.686L15.7252 54.3561H12.3061H12.3104ZM34.4298 54.3561L28.4753 0.70752H38.1776L42.6979 42.6372L68.1981 0.70752H69.8158L37.2257 54.3561H34.4341H34.4298ZM36.7092 24.2134L51.0045 0.70752H52.5838L38.327 24.2134H36.7092ZM61.6971 2.08345V0.70752H75.8814V2.08345H61.6971Z" fill="white"/>
<path d="M67.8823 54.3524C65.3596 54.3524 63.2381 53.8626 61.5265 52.8871C59.8105 51.9115 58.5214 50.5697 57.6506 48.8615C56.7799 47.1576 56.3445 45.2193 56.3445 43.0553C56.3445 40.231 56.8908 37.4792 57.9793 34.7955C59.0678 32.1118 60.5874 29.6879 62.5338 27.5239C64.4803 25.3599 66.7511 23.6432 69.3506 22.3695C71.9459 21.1001 74.7375 20.4653 77.7297 20.4653C80.8628 20.4653 83.3001 21.1554 85.0417 22.5314C86.779 23.9073 87.6498 25.607 87.6498 27.6304C87.6498 29.4195 87.0436 31.0425 85.8314 32.4994C84.6191 33.9605 82.9416 35.2129 80.7988 36.2566C78.656 37.3045 76.1632 38.1395 73.3204 38.7614C70.4775 39.3833 67.4426 39.7795 64.2071 39.9456V38.8168C66.0938 38.6762 67.8695 38.3269 69.5342 37.7774C71.1989 37.2236 72.7057 36.4994 74.0545 35.6048C75.4034 34.7103 76.573 33.6922 77.5633 32.5505C78.5536 31.4089 79.3134 30.2034 79.8426 28.9339C80.3677 27.6645 80.6323 26.3823 80.6323 25.0873C80.6323 24.2183 80.4317 23.46 80.0262 22.8125C79.6207 22.165 78.9292 21.8413 77.9517 21.8413C76.7522 21.8413 75.5741 22.2545 74.4259 23.0766C73.2734 23.8988 72.1764 25.0234 71.1392 26.4462C70.0976 27.869 69.15 29.4621 68.2921 31.23C67.4341 32.9936 66.6871 34.8295 66.0511 36.738C65.4151 38.6421 64.9242 40.5037 64.5827 42.3141C64.2412 44.1245 64.0705 45.7731 64.0705 47.2555C64.0705 49.2321 64.5528 50.608 65.5218 51.3833C66.4907 52.1586 67.7201 52.5463 69.2141 52.5463C70.9769 52.5463 72.6844 52.1799 74.3405 51.4515C75.9925 50.7231 77.5419 49.7007 78.9889 48.3801C80.436 47.0638 81.7336 45.5218 82.8818 43.7582L84.1325 44.5335C83.0782 46.2289 81.7806 47.8221 80.2396 49.3173C78.6944 50.8125 76.9016 52.0223 74.857 52.951C72.8124 53.8796 70.4903 54.3439 67.8951 54.3439L67.8823 54.3524Z" fill="white"/>
<path d="M139.38 54.3516C136.072 54.3516 133.664 53.3165 132.162 51.2462C130.655 49.1759 129.904 46.3857 129.904 42.8798C129.904 40.1748 130.429 37.4954 131.483 34.85C132.537 32.2046 133.95 29.7978 135.726 27.6338C137.502 25.4698 139.456 23.7318 141.586 22.4283C143.716 21.1205 145.859 20.4688 148.015 20.4688C149.654 20.4688 150.977 20.882 151.985 21.7041C152.988 22.5263 153.722 23.6509 154.187 25.0736C154.652 26.4964 154.887 28.0896 154.887 29.8575C154.887 31.2206 154.721 32.7712 154.392 34.5007C154.063 36.2302 153.585 38.0108 152.958 39.8468C152.335 41.6828 151.575 43.4634 150.678 45.1929C149.782 46.9224 148.762 48.4773 147.609 49.8532C146.457 51.2291 145.198 52.3239 143.823 53.1375C142.453 53.9512 140.968 54.3559 139.375 54.3559L139.38 54.3516ZM141.732 51.6679C142.858 51.6679 143.998 51.2036 145.151 50.2749C146.303 49.3463 147.387 48.0981 148.403 46.5348C149.419 44.9714 150.333 43.2291 151.139 41.3122C151.946 39.3953 152.578 37.44 153.03 35.4549C153.483 33.4656 153.709 31.5784 153.709 29.7893C153.709 28.4006 153.572 27.1993 153.304 26.1897C153.035 25.1801 152.604 24.3963 152.019 23.8426C151.43 23.2888 150.67 23.0119 149.739 23.0119C148.659 23.0119 147.567 23.5316 146.453 24.5667C145.338 25.6019 144.267 26.965 143.238 28.6604C142.21 30.3559 141.296 32.2217 140.502 34.2536C139.704 36.2898 139.068 38.3346 138.59 40.3963C138.112 42.4538 137.873 44.3537 137.873 46.096C137.873 47.8383 138.21 49.2611 138.885 50.2238C139.559 51.1908 140.507 51.6722 141.732 51.6722V51.6679ZM156.061 54.3516C154.029 54.3516 152.535 53.8745 151.579 52.9203C150.623 51.9661 150.145 50.6924 150.145 49.0907C150.145 48.669 150.162 48.2898 150.2 47.9618C150.239 47.6338 150.281 47.3484 150.328 47.1141L151.43 41.5721L153.304 36.03L154.332 29.8191L156.535 21.1716H164.914L156.979 49.9001C156.881 50.2749 156.834 50.6413 156.834 50.9948C156.834 51.3484 156.932 51.6423 157.128 51.8766C157.324 52.1109 157.653 52.2302 158.118 52.2302C158.976 52.2302 159.851 51.9107 160.744 51.276C161.636 50.6413 162.562 49.5976 163.518 48.1535C164.474 46.7052 169.754 38.4666 170.83 35.9959L172.226 36.456C171.099 39.161 165.691 47.6509 164.525 49.3548C163.36 51.063 162.092 52.3197 160.722 53.1333C159.352 53.9469 157.794 54.3516 156.057 54.3516H156.061Z" fill="white"/>
<path d="M166.216 53.6491L174.373 22.5522H168.675V21.1763H182.381L174.19 53.6491H166.216Z" fill="white"/>
<path d="M175.952 43.3053C176.392 41.4011 176.951 39.3947 177.626 37.2861C178.3 35.1818 179.094 33.137 180.016 31.1605C180.934 29.1839 181.958 27.3905 183.085 25.776C184.212 24.1658 185.441 22.8836 186.777 21.9294C188.113 20.9752 189.539 20.498 191.059 20.498C192.77 20.498 194.149 20.9709 195.191 21.9081C196.232 22.8495 196.753 24.0508 196.753 25.5076C196.753 25.6141 196.77 25.5076 196.68 25.5076L195.246 25.4736C195.246 24.3916 194.875 23.514 194.128 22.8452C193.381 22.1764 192.356 21.8399 191.059 21.8399C189.663 21.8399 188.344 22.3042 187.11 23.2329C185.872 24.1615 184.728 25.4097 183.674 26.973C182.62 28.5364 181.655 30.2616 180.772 32.1445C179.888 34.0273 179.12 35.94 178.458 37.8782C177.796 39.8165 177.246 41.6269 176.806 43.2968H175.961L175.952 43.3053Z" fill="white"/>
<path d="M206.899 54.3524C204.376 54.3524 202.255 53.8626 200.543 52.8871C198.827 51.9115 197.538 50.5697 196.667 48.8615C195.797 47.1576 195.361 45.2193 195.361 43.0553C195.361 40.231 195.908 37.4792 196.996 34.7955C198.085 32.1118 199.604 29.6879 201.551 27.5239C203.497 25.3599 205.772 23.6432 208.368 22.3695C210.963 21.1001 213.754 20.4653 216.747 20.4653C219.884 20.4653 222.321 21.1554 224.059 22.5314C225.796 23.9073 226.667 25.607 226.667 27.6304C226.667 29.4195 226.06 31.0425 224.848 32.4994C223.636 33.9605 221.958 35.2129 219.816 36.2566C217.673 37.3045 215.18 38.1395 212.337 38.7614C209.494 39.3833 206.459 39.7795 203.224 39.9456V38.8168C205.111 38.6762 206.886 38.3269 208.551 37.7774C210.216 37.2236 211.723 36.4994 213.071 35.6048C214.416 34.7103 215.59 33.6922 216.58 32.5505C217.57 31.4089 218.33 30.2034 218.859 28.9339C219.385 27.6645 219.649 26.3823 219.649 25.0873C219.649 24.2183 219.449 23.46 219.043 22.8125C218.638 22.165 217.946 21.8413 216.969 21.8413C215.769 21.8413 214.591 22.2545 213.443 23.0766C212.29 23.8988 211.193 25.0234 210.156 26.4462C209.114 27.869 208.167 29.4621 207.309 31.23C206.451 32.9936 205.704 34.8295 205.068 36.738C204.432 38.6421 203.941 40.5037 203.6 42.3141C203.258 44.1245 203.087 45.7731 203.087 47.2555C203.087 49.2321 203.57 50.608 204.539 51.3833C205.508 52.1586 206.737 52.5463 208.231 52.5463C209.994 52.5463 211.701 52.1799 213.357 51.4515C215.009 50.7231 216.559 49.7007 218.006 48.3801C219.449 47.0638 220.75 45.5218 221.899 43.7582L223.149 44.5335C222.095 46.2289 220.797 47.8221 219.256 49.3173C217.711 50.8125 215.918 52.0223 213.874 52.951C211.829 53.8796 209.507 54.3439 206.912 54.3439L206.899 54.3524Z" fill="white"/>
<path d="M80.4488 64.5669H12.1782V65.9428H80.4488V64.5669Z" fill="white"/>
<path d="M221.485 64.5669H121.474V65.9428H221.485V64.5669Z" fill="white"/>
<path d="M93.9461 54.3517C91.7648 54.3517 90.1684 53.9172 89.1525 53.0439C88.1366 52.1749 87.6287 51.046 87.6287 49.6573C87.6287 49.0695 87.6713 48.5412 87.7567 48.0684C87.8421 47.5998 87.936 47.1994 88.0342 46.8671L100.601 2.07906H94.0229V0.703125H109.014L95.1967 49.832C95.1455 50.045 95.1114 50.2537 95.0858 50.4667C95.0601 50.6797 95.0473 50.8671 95.0473 51.0333C95.0473 51.8341 95.4614 52.2345 96.298 52.2345C97.1346 52.2345 98.031 51.9151 98.9274 51.2803C99.8195 50.6456 100.746 49.602 101.702 48.1579C102.658 46.7095 103.674 44.75 104.75 42.2835L106.145 42.7436C105.019 45.4486 103.875 47.6552 102.709 49.3634C101.544 51.0716 100.259 52.3283 98.8506 53.1419C97.442 53.9555 95.8071 54.3602 93.9461 54.3602V54.3517Z" fill="white"/>
<path d="M98.4025 72C96.3963 72 94.706 71.672 93.3315 71.0117C91.9613 70.3514 90.9113 69.5037 90.1899 68.4686C89.4685 67.4334 89.1782 65.9723 89.1782 65.2226H90.6125C90.6125 66.0234 90.8942 66.8328 91.4576 67.6592C92.0211 68.4814 92.8406 69.1842 93.9205 69.7593C95.0005 70.3344 96.3194 70.6241 97.8903 70.6241C99.3586 70.6241 100.584 70.2236 101.565 69.4228C102.547 68.6219 103.384 67.4931 104.084 66.0362C104.784 64.5751 105.394 62.8754 105.919 60.9372C106.444 58.9947 106.991 56.8818 107.554 54.6028L116.411 17.5421C117 15.1182 117.777 12.8477 118.746 10.7306C119.715 8.61342 120.898 6.7476 122.293 5.13738C123.689 3.52716 125.311 2.26624 127.164 1.35889C129.012 0.451544 131.125 0 133.502 0C135.487 0 137.165 0.328008 138.535 0.988285C139.905 1.64856 140.947 2.49627 141.66 3.53142C142.368 4.56656 142.65 6.18956 142.65 6.77742H141.254C141.254 5.97657 140.977 5.15868 140.426 4.32375C139.875 3.48882 139.064 2.7902 138.001 2.22364C136.939 1.65708 135.632 1.37593 134.087 1.37593C132.666 1.37593 131.466 1.78062 130.485 2.59425C129.503 3.40788 128.683 4.53674 128.022 5.98083C127.36 7.42918 126.758 9.12886 126.22 11.0799C125.683 13.0351 125.132 15.1608 124.568 17.4696L115.566 54.4579C114.952 56.8818 114.17 59.1523 113.214 61.2694C112.258 63.3866 111.089 65.2439 109.706 66.8456C108.323 68.4473 106.688 69.7039 104.801 70.6241C102.914 71.5399 100.784 72 98.4068 72H98.4025Z" fill="white"/>
<path d="M133.455 21.1763H108.395V22.5522H133.455V21.1763Z" fill="white"/>
<path d="M93.7498 69.8155C96.2746 69.8155 98.3214 67.7729 98.3214 65.2532C98.3214 62.7335 96.2746 60.6909 93.7498 60.6909C91.225 60.6909 89.1782 62.7335 89.1782 65.2532C89.1782 67.7729 91.225 69.8155 93.7498 69.8155Z" fill="white"/>
<path d="M138.074 11.5191C140.599 11.5191 142.645 9.47652 142.645 6.95683C142.645 4.43714 140.599 2.39453 138.074 2.39453C135.549 2.39453 133.502 4.43714 133.502 6.95683C133.502 9.47652 135.549 11.5191 138.074 11.5191Z" fill="white"/>
<path d="M192.182 30.3009C194.706 30.3009 196.753 28.2583 196.753 25.7386C196.753 23.2189 194.706 21.1763 192.182 21.1763C189.657 21.1763 187.61 23.2189 187.61 25.7386C187.61 28.2583 189.657 30.3009 192.182 30.3009Z" fill="white"/>
</svg>
