<svg width="144" height="40" viewBox="0 0 144 40" fill="none" xmlns="http://www.w3.org/2000/svg">
<g clip-path="url(#clip0_695_36)">
<path d="M84.8066 4.5798C84.8066 1.91553 86.5204 0.09375 89.3935 0.09375C91.7337 0.09375 93.1235 1.29627 93.4835 3.17566L92.2594 3.29807C91.9714 1.92993 90.9489 1.08745 89.3287 1.08745C87.2621 1.08745 86.0308 2.46999 86.0308 4.5654C86.0308 6.66081 87.2765 8.07935 89.3647 8.07935C90.8985 8.07935 91.9354 7.30887 92.3026 5.97674L93.4691 6.17836C92.9795 7.92093 91.6473 9.08025 89.3431 9.08025C86.3908 9.08025 84.8066 7.15046 84.8066 4.5654V4.5798Z" fill="#000006"/>
<path d="M103.046 8.8572H101.858V4.99041H96.414V8.8572H95.2402V0.331543H96.414V4.00391H101.858V0.331543H103.046V8.84999V8.8572Z" fill="#000006"/>
<path d="M108.404 0.331543H109.592L113.481 8.84999H112.242L111.284 6.63937H106.712L105.754 8.84999H104.516L108.404 0.331543ZM110.852 5.66008L109.29 2.08132C109.203 1.8797 109.095 1.62767 109.002 1.37565H108.98C108.894 1.62767 108.786 1.8797 108.706 2.08132L107.144 5.66008H110.852Z" fill="#000006"/>
<path d="M114.964 0.331543H119.126C121.394 0.331543 122.028 1.62767 122.028 2.83019C122.028 3.78789 121.502 4.8824 119.998 5.19203L122.323 8.84999H120.955L118.709 5.34324H116.131V8.84999H114.957V0.331543H114.964ZM118.946 4.37835C120.35 4.37835 120.797 3.63667 120.797 2.83019C120.797 2.02371 120.35 1.31804 118.961 1.31804H116.138V4.37835H118.946Z" fill="#000006"/>
<path d="M124.166 8.8572V0.331543H125.34V8.84999H124.166V8.8572Z" fill="#000006"/>
<path d="M126.779 0.331543H134.455V1.31804H131.2V8.84999H130.026V1.31804H126.771V0.331543H126.779Z" fill="#000006"/>
<path d="M138.286 5.60247L134.736 0.331543H136.119L138.654 4.14792C138.776 4.34234 138.848 4.48636 138.884 4.61597H138.906C138.942 4.48636 139.014 4.34234 139.136 4.14792L141.692 0.331543H143.075L139.489 5.60247V8.8572H138.301V5.60247H138.286Z" fill="#000006"/>
<path d="M124.965 35.0532H71.3125V35.4061H124.965V35.0532Z" fill="#000006"/>
<path d="M46.4996 35.0532H0.955078V35.4061H46.4996V35.0532Z" fill="#000006"/>
<path d="M42.8417 0.388672H34.9713V0.741507H38.4636L24.5518 23.683L23.1837 11.0385L29.4411 0.741507H33.1423V0.388672H0.955078V0.741507H4.49783L7.78136 30.1924H9.2071L18.28 15.1357L19.9506 30.1924H21.0307L38.8957 0.741507H42.8417V0.388672ZM29.0307 0.741507L23.1261 10.4697L22.0676 0.741507H29.0307ZM12.7139 23.683L10.2872 0.741507H16.6887L18.2224 14.5669L12.7211 23.6902L12.7139 23.683Z" fill="#000006"/>
<path d="M47.0327 12.5219C46.0678 11.7586 44.7141 11.377 42.9787 11.377C41.2434 11.377 39.7744 11.7298 38.3343 12.4355C36.8941 13.1411 35.634 14.0988 34.5539 15.3013C33.4738 16.5039 32.6313 17.8504 32.0264 19.3409C31.4216 20.8315 31.1191 22.3581 31.1191 23.9278C31.1191 25.1303 31.3568 26.2032 31.8392 27.1537C32.3217 28.1042 33.0417 28.8459 33.9922 29.386C34.9427 29.926 36.1164 30.1996 37.5206 30.1996C38.9247 30.1996 40.2497 29.9404 41.3802 29.422C42.5179 28.9035 43.5116 28.2338 44.3685 27.4058C45.2254 26.5777 45.9454 25.692 46.5287 24.7487L46.2263 24.5543C45.5494 25.584 44.7861 26.4913 43.9436 27.2617C43.1011 28.0322 42.1938 28.6299 41.2218 29.0547C40.2497 29.4796 39.2344 29.6956 38.1758 29.6956C37.3478 29.6956 36.6709 29.4724 36.138 29.0187C35.6052 28.5651 35.346 27.7226 35.346 26.4769C35.346 25.6416 35.4468 24.6983 35.6412 23.6542C35.742 23.1285 35.8644 22.5885 36.0012 22.0484C37.5998 21.9332 39.1119 21.7316 40.5305 21.4292C42.1002 21.0979 43.4828 20.6515 44.6781 20.0826C45.8734 19.521 46.8095 18.8369 47.4792 18.0448C48.1488 17.2527 48.4873 16.3527 48.4873 15.359C48.4873 14.2356 48.0048 13.2923 47.0399 12.5219H47.0327ZM44.2029 15.9854C43.9148 16.7415 43.5044 17.4616 42.9571 18.1312C42.4171 18.8081 41.769 19.4058 41.0201 19.9242C40.2713 20.4499 39.4288 20.8747 38.4927 21.1987C37.7366 21.4652 36.9301 21.638 36.0804 21.7316C36.1956 21.2995 36.3181 20.8603 36.4621 20.4139C36.8221 19.3049 37.247 18.232 37.7366 17.2095C38.2263 16.187 38.7591 15.2581 39.3496 14.4229C39.9328 13.5948 40.5521 12.9323 41.2074 12.4499C41.8626 11.9674 42.5179 11.7226 43.1875 11.7226C43.7276 11.7226 44.1092 11.9242 44.3181 12.3274C44.5269 12.7307 44.6349 13.1843 44.6349 13.6812C44.6349 14.4517 44.4909 15.2149 44.2101 15.9782L44.2029 15.9854Z" fill="#000006"/>
<path d="M56.5662 27.1321C55.9901 27.989 55.4285 28.5939 54.874 28.9539C54.3195 29.314 53.7867 29.494 53.2754 29.494C52.8146 29.494 52.5842 29.2852 52.5842 28.8675C52.5842 28.7739 52.5842 28.6731 52.6058 28.5651C52.6202 28.4571 52.6418 28.3419 52.6634 28.2195L60.469 0.388672H52.2745V0.741507H55.9253L48.8326 25.98C48.7894 26.16 48.7462 26.3905 48.6886 26.6641C48.631 26.9377 48.6094 27.2402 48.6094 27.5642C48.6094 28.3491 48.8974 28.9827 49.4663 29.4652C50.0351 29.9476 50.928 30.1924 52.1377 30.1924C53.1602 30.1924 54.0459 29.9548 54.8092 29.4868C55.5725 29.0187 56.2637 28.3059 56.8974 27.3482C57.5311 26.3977 58.1503 25.1807 58.7624 23.6974L58.4168 23.5822C57.7615 25.0871 57.1494 26.2681 56.5734 27.1249L56.5662 27.1321Z" fill="#000006"/>
<path d="M91.9432 23.5894C91.3023 25.0943 90.6902 26.2752 90.107 27.1321C89.5237 27.989 88.9549 28.5939 88.4076 28.9539C87.8604 29.3139 87.3203 29.494 86.7875 29.494C86.5426 29.494 86.3626 29.4292 86.2546 29.3067C86.1466 29.1843 86.089 29.0187 86.089 28.8243C86.089 28.6299 86.1178 28.4283 86.1682 28.2194L90.7119 11.7658H86.0674L84.8433 16.5831C84.8433 16.5831 84.8433 16.5471 84.8433 16.5327C84.8433 15.6182 84.7425 14.7685 84.5408 13.9836C84.3392 13.1987 83.9864 12.5651 83.4823 12.0898C82.9783 11.6146 82.2726 11.377 81.3653 11.377C80.1556 11.377 78.9603 11.737 77.765 12.4643C76.5768 13.1915 75.4895 14.1564 74.5174 15.359C73.5381 16.5615 72.7605 17.9008 72.1844 19.3698C71.6083 20.8387 71.3203 22.3292 71.3203 23.8342C71.3203 25.7928 71.7308 27.3481 72.566 28.4931C73.3941 29.638 74.7263 30.2068 76.5624 30.2068C77.4337 30.2068 78.2402 29.9764 78.9747 29.5084C79.7164 29.0475 80.3932 28.4283 81.0125 27.6578C81.6317 26.8873 82.179 26.016 82.6542 25.0511C82.7839 24.7847 82.8919 24.5183 83.0143 24.2518L82.6398 26.1888C82.611 26.3184 82.5894 26.4769 82.5678 26.6713C82.5462 26.8585 82.539 27.0745 82.539 27.3049C82.539 28.169 82.7911 28.8675 83.3023 29.4004C83.8136 29.9332 84.62 30.2068 85.7146 30.2068C86.7083 30.2068 87.5795 29.9692 88.3356 29.5012C89.0917 29.0331 89.783 28.3202 90.4238 27.3626C91.0647 26.4121 91.6911 25.1951 92.296 23.7118L91.9504 23.5966L91.9432 23.5894ZM81.6605 26.1024C81.0989 27.0169 80.4868 27.7442 79.8388 28.2914C79.1835 28.8315 78.5426 29.1051 77.9018 29.1051C77.2249 29.1051 76.692 28.8171 76.3032 28.2338C75.9144 27.6506 75.72 26.7937 75.72 25.656C75.72 24.6911 75.8496 23.6182 76.116 22.4517C76.3824 21.2779 76.7353 20.1114 77.1745 18.9305C77.6137 17.7568 78.125 16.6695 78.6938 15.683C79.2627 14.6965 79.8604 13.9044 80.4868 13.2995C81.1133 12.6947 81.7254 12.3995 82.323 12.3995C82.8775 12.3995 83.3239 12.5723 83.6479 12.9179C83.972 13.2635 84.2024 13.746 84.3392 14.3581C84.476 14.9701 84.5408 15.683 84.5408 16.4967C84.5408 17.4904 84.4184 18.5561 84.1736 19.6938C83.9288 20.8315 83.5903 21.9548 83.1511 23.0637C82.7191 24.1726 82.215 25.1879 81.6533 26.1024H81.6605Z" fill="#000006"/>
<path d="M123.519 12.5219C122.554 11.7586 121.2 11.377 119.465 11.377C117.73 11.377 116.261 11.7298 114.821 12.4355C113.38 13.1411 112.12 14.0988 111.04 15.3013C109.96 16.5039 109.118 17.8504 108.513 19.3409C107.908 20.8315 107.605 22.3581 107.605 23.9278C107.605 25.1303 107.843 26.2032 108.326 27.1537C108.808 28.1042 109.528 28.8459 110.479 29.386C111.429 29.926 112.603 30.1996 114.007 30.1996C115.411 30.1996 116.736 29.9404 117.866 29.422C119.004 28.9035 119.998 28.2338 120.855 27.4058C121.712 26.5777 122.432 25.692 123.015 24.7487L122.713 24.5543C122.036 25.584 121.272 26.4913 120.43 27.2617C119.587 28.0322 118.68 28.6299 117.708 29.0547C116.736 29.4796 115.721 29.6956 114.662 29.6956C113.834 29.6956 113.157 29.4724 112.624 29.0187C112.092 28.5651 111.832 27.7226 111.832 26.4769C111.832 25.6416 111.933 24.6983 112.128 23.6542C112.228 23.1285 112.351 22.5885 112.488 22.0484C114.086 21.9332 115.598 21.7316 117.017 21.4292C118.587 21.0979 119.969 20.6515 121.164 20.0826C122.36 19.521 123.296 18.8369 123.966 18.0448C124.635 17.2455 124.974 16.3527 124.974 15.359C124.974 14.2356 124.491 13.2923 123.526 12.5219H123.519ZM120.689 15.9854C120.401 16.7415 119.991 17.4616 119.443 18.1312C118.903 18.8081 118.255 19.4058 117.506 19.9242C116.758 20.4499 115.915 20.8747 114.979 21.1987C114.223 21.4652 113.416 21.638 112.567 21.7316C112.682 21.2995 112.804 20.8603 112.948 20.4139C113.308 19.3049 113.733 18.232 114.223 17.2095C114.713 16.187 115.245 15.2581 115.836 14.4229C116.419 13.5948 117.038 12.9323 117.694 12.4499C118.349 11.9674 119.004 11.7226 119.674 11.7226C120.214 11.7226 120.596 11.9242 120.804 12.3274C121.013 12.7307 121.121 13.1843 121.121 13.6812C121.121 14.4517 120.977 15.2149 120.696 15.9782L120.689 15.9854Z" fill="#000006"/>
<path d="M107.584 12.2198C106.979 11.6726 106.187 11.3989 105.208 11.3989C104.337 11.3989 103.545 11.6654 102.824 12.191C102.104 12.7239 101.449 13.4295 100.859 14.3152C100.268 15.2009 99.7354 16.1874 99.2673 17.2603C99.0297 17.8004 98.8137 18.3476 98.6049 18.9021L100.419 11.7734H92.8803V12.1262H96.0774L91.3105 30.2072H95.7318L97.3808 23.7194H97.4024C97.6328 22.7905 97.928 21.7896 98.2808 20.7095C98.6337 19.6293 99.0369 18.5636 99.4834 17.5123C99.9298 16.461 100.441 15.4961 101.01 14.6176C101.579 13.7392 102.212 13.0479 102.904 12.5294C103.595 12.011 104.358 11.7518 105.186 11.7518C105.957 11.7518 106.583 11.939 107.08 12.2918C106.749 12.1334 106.389 12.0326 106 12.0326C104.625 12.0326 103.509 13.1487 103.509 14.524C103.509 15.8994 104.625 17.0155 106 17.0155C107.375 17.0155 108.491 15.9066 108.491 14.5168C108.491 13.3215 108.189 12.7599 107.584 12.2126V12.2198Z" fill="#000006"/>
<path d="M79.3212 4.00336C79.3212 3.80174 79.2924 3.59292 79.2564 3.3985C79.17 2.91605 78.9972 2.54161 78.7307 2.13117C78.6371 1.98716 78.5291 1.84314 78.4067 1.71353C78.3419 1.63432 78.2627 1.56952 78.1907 1.49751C78.1403 1.4471 78.0899 1.3895 78.0323 1.33909C77.7298 1.07267 77.377 0.827842 76.9666 0.619021C76.1889 0.21578 75.2168 0.0141602 74.0647 0.0141602C72.6893 0.0141602 71.4868 0.266185 70.4571 0.770236C69.4274 1.27429 68.5345 1.97276 67.7784 2.86565C67.0224 3.75853 66.3887 4.79544 65.863 5.97636C65.3374 7.15007 64.9126 8.4174 64.5885 9.76394L64.1061 11.7801H59.9513V12.133H64.0197L59.656 30.3292C59.3464 31.5965 59.0368 32.7918 58.7271 33.908C58.4247 35.0241 58.0647 36.0106 57.6686 36.8674C57.2654 37.7243 56.7829 38.394 56.2213 38.8836C55.6596 39.3733 54.9684 39.6181 54.1547 39.6181C53.1898 39.6181 52.3761 39.4309 51.7064 39.0493C51.08 38.6892 50.5975 38.2572 50.2663 37.7459C50.6911 38.0772 51.2168 38.286 51.8 38.286C53.1754 38.286 54.2915 37.1699 54.2915 35.7945C54.2915 34.4192 53.1754 33.3031 51.8 33.3031C50.4247 33.3031 49.3086 34.4192 49.3086 35.7945C49.3086 36.7378 49.503 37.2779 49.8991 37.8827C50.2951 38.4876 50.8784 38.9989 51.6488 39.4021C52.4265 39.8053 53.3914 40.007 54.5651 40.007C55.9405 40.007 57.1502 39.7549 58.1943 39.2437C59.2384 38.7324 60.1457 38.034 60.9162 37.1483C61.6866 36.2626 62.3275 35.2257 62.8387 34.052C63.3572 32.8782 63.782 31.6109 64.1205 30.2644L68.4913 12.1258H74.4247V11.7729H68.5777L69.0746 9.71353C69.3842 8.4318 69.701 7.23648 70.0107 6.11317C70.3203 4.99706 70.6659 4.01056 71.0404 3.15367C71.4148 2.29679 71.8829 1.62712 72.4445 1.13747C73.0062 0.647824 73.683 0.402999 74.4751 0.402999C75.4688 0.402999 76.2897 0.597419 76.9522 0.979057C77.1466 1.09427 77.3194 1.20948 77.4778 1.33909H77.4706C77.6506 1.47591 77.809 1.61992 77.9603 1.77114C77.9603 1.77114 77.9675 1.78554 77.9747 1.78554C78.1187 1.93675 78.2483 2.10237 78.3635 2.26799C77.9387 1.93675 77.413 1.72793 76.8297 1.72793C75.4544 1.72793 74.3383 2.84404 74.3383 4.21938C74.3383 5.59472 75.4544 6.71083 76.8297 6.71083C78.2051 6.71083 79.3212 5.59472 79.3212 4.21938C79.3212 4.15457 79.3212 4.10417 79.3212 4.04656C79.3212 4.03216 79.3212 4.02496 79.3212 4.00336Z" fill="#000006"/>
</g>
<defs>
<clipPath id="clip0_695_36">
<rect width="142.106" height="40" fill="white" transform="translate(0.955078)"/>
</clipPath>
</defs>
</svg>
