<svg width="140" height="40" viewBox="0 0 140 40" fill="none" xmlns="http://www.w3.org/2000/svg">
<g clip-path="url(#clip0_695_493)">
<path d="M84.041 4.593C84.041 1.94252 85.7608 0.121582 88.6136 0.121582C90.9404 0.121582 92.3364 1.31531 92.7006 3.19695L91.4866 3.31834C91.2034 1.96276 90.1715 1.11298 88.5731 1.11298C86.5094 1.11298 85.2752 2.4888 85.2752 4.593C85.2752 6.6972 86.5296 8.09326 88.6136 8.09326C90.1513 8.09326 91.1831 7.32441 91.5473 5.98906L92.7006 6.19138C92.215 7.93139 90.8797 9.08466 88.5731 9.08466C85.6192 9.08466 84.041 7.16255 84.041 4.57277V4.593Z" fill="#000006"/>
<path d="M97.2726 0.344238H98.4664L102.351 8.84196H101.117L100.166 6.6366H95.5933L94.6424 8.84196H93.4082L97.2929 0.344238H97.2726ZM99.7208 5.66543L98.1629 2.10448C98.0819 1.90215 97.9808 1.63913 97.8796 1.39634H97.8594C97.7785 1.63913 97.6773 1.90215 97.5761 2.10448L96.0182 5.66543H99.7208Z" fill="#000006"/>
<path d="M103.828 8.8622V0.344238H107.875C109.716 0.344238 110.869 1.35587 110.869 2.91379C110.869 4.4717 109.655 5.5238 107.753 5.5238H105.002V8.84196H103.828V8.8622ZM107.713 4.55263C108.907 4.55263 109.635 3.92542 109.635 2.91379C109.635 1.90215 108.907 1.31541 107.713 1.31541H105.002V4.5324H107.713V4.55263Z" fill="#000006"/>
<path d="M112.508 8.8622V0.344238H113.681V8.84196H112.508V8.8622Z" fill="#000006"/>
<path d="M115.139 0.344238H122.807V1.33564H119.57V8.8622H118.396V1.33564H115.159V0.344238H115.139Z" fill="#000006"/>
<path d="M127.056 0.344238H128.25L132.134 8.84196H130.9L129.949 6.6366H125.377L124.426 8.84196H123.191L127.076 0.344238H127.056ZM129.504 5.66543L127.946 2.10448C127.865 1.90215 127.764 1.63913 127.663 1.39634H127.643C127.562 1.63913 127.461 1.90215 127.359 2.10448L125.801 5.66543H129.504Z" fill="#000006"/>
<path d="M133.611 0.344238H134.785V7.85056H139.782V8.8622H133.611V0.344238Z" fill="#000006"/>
<path d="M124.203 35.043H70.5664V35.3869H124.203V35.043Z" fill="#000006"/>
<path d="M45.7403 35.043H0.216797V35.3869H45.7403V35.043Z" fill="#000006"/>
<path d="M42.0984 0.384277H34.2279V0.728233H37.7282L23.8283 23.6721L22.4525 11.0267L28.6842 0.748466H32.3868V0.40451H0.216797V0.748466H3.75752L7.03521 30.187H8.4515L17.5157 15.1339L19.1748 30.187H20.2471L38.1531 0.748466H42.0984V0.40451V0.384277ZM28.2998 0.728233L22.3918 10.4602L21.3397 0.728233H28.2998ZM11.972 23.6721L9.54406 0.748466H15.9376L17.4753 14.5674L11.972 23.6923V23.6721Z" fill="#000006"/>
<path d="M46.2864 12.5239C45.3152 11.755 43.9799 11.3706 42.2399 11.3706C40.4999 11.3706 39.0431 11.7146 37.5863 12.4227C36.1498 13.1308 34.8954 14.0818 33.8028 15.2755C32.7305 16.4692 31.8807 17.8248 31.2738 19.322C30.6668 20.8193 30.3633 22.3367 30.3633 23.9149C30.3633 25.1086 30.6061 26.2012 31.0917 27.1319C31.5772 28.0828 32.2854 28.8314 33.2363 29.3575C34.1873 29.9037 35.3608 30.1668 36.7568 30.1668C38.1529 30.1668 39.4882 29.9037 40.6212 29.3979C41.7543 28.8719 42.7457 28.2042 43.6157 27.3747C44.4655 26.5451 45.1938 25.6549 45.7806 24.7242L45.4771 24.5218C44.7892 25.5537 44.0406 26.4642 43.1908 27.233C42.341 28.0019 41.4508 28.6088 40.4796 29.0337C39.5085 29.4586 38.4968 29.6812 37.4245 29.6812C36.5949 29.6812 35.9273 29.4586 35.381 29.0135C34.8549 28.5684 34.5919 27.7186 34.5919 26.4844C34.5919 25.6549 34.6931 24.7039 34.8954 23.6518C34.9966 23.1258 35.118 22.5795 35.2596 22.0535C36.858 21.9321 38.3754 21.7297 39.7917 21.4262C41.3699 21.1025 42.7457 20.6372 43.9394 20.0909C45.1331 19.5244 46.0638 18.8567 46.7315 18.0474C47.3992 17.2381 47.7432 16.3478 47.7432 15.3564C47.7432 14.2234 47.2576 13.2927 46.3066 12.5239H46.2864ZM43.4538 15.9837C43.1706 16.7323 42.7457 17.4606 42.2196 18.1283C41.6733 18.796 41.0259 19.403 40.2773 19.929C39.5287 20.4551 38.6789 20.88 37.7482 21.2037C36.9996 21.4667 36.1903 21.6488 35.3405 21.7297C35.4619 21.3048 35.5833 20.8597 35.7249 20.4146C36.0891 19.3018 36.514 18.2295 36.9996 17.2178C37.4852 16.186 38.0315 15.2553 38.6182 14.4257C39.205 13.5962 39.8119 12.9488 40.4796 12.4632C41.1271 11.9776 41.7947 11.7348 42.4624 11.7348C43.0087 11.7348 43.3729 11.9371 43.5955 12.3418C43.7978 12.7464 43.9192 13.1915 43.9192 13.6974C43.9192 14.4662 43.7775 15.235 43.4943 15.9837H43.4538Z" fill="#000006"/>
<path d="M55.8167 27.1319C55.2299 27.9816 54.6836 28.5886 54.1171 28.9528C53.5708 29.317 53.0246 29.4991 52.5188 29.4991C52.0534 29.4991 51.8308 29.2968 51.8308 28.8719C51.8308 28.7707 51.8308 28.6696 51.8511 28.5684C51.8511 28.4672 51.8915 28.3458 51.9118 28.2244L59.7216 0.384277H51.5274V0.728233H55.1692L48.0878 25.9584C48.0473 26.1405 48.0069 26.363 47.9462 26.6463C47.8855 26.9296 47.8652 27.2128 47.8652 27.5568C47.8652 28.3458 48.1485 28.9731 48.715 29.4586C49.2815 29.9442 50.1718 30.187 51.3857 30.187C52.3974 30.187 53.2876 29.9442 54.0564 29.4789C54.8253 29.0135 55.5132 28.3054 56.1404 27.3342C56.7676 26.3833 57.3948 25.1693 58.0018 23.6923L57.6578 23.5709C57.0104 25.0681 56.3832 26.2619 55.8167 27.1116V27.1319Z" fill="#000006"/>
<path d="M91.1835 23.5914C90.5361 25.0886 89.9291 26.2824 89.3423 27.1321C88.7556 27.9819 88.1891 28.5889 87.6428 28.9531C87.0965 29.3173 86.5502 29.4994 86.0242 29.4994C85.7814 29.4994 85.5993 29.4387 85.4981 29.3173C85.397 29.1959 85.3363 29.034 85.3363 28.8317C85.3363 28.6294 85.3565 28.427 85.4172 28.2247L89.9695 11.7755H85.316L84.1021 16.5909V16.5504C84.1021 15.64 84.0009 14.7902 83.7986 14.0011C83.5963 13.2121 83.2321 12.5848 82.7465 12.0993C82.2407 11.6137 81.5325 11.3911 80.622 11.3911C79.4081 11.3911 78.2144 11.7553 77.0206 12.4837C75.8269 13.2121 74.7546 14.163 73.7632 15.3769C72.792 16.5707 72.0029 17.906 71.4364 19.383C70.8497 20.86 70.5664 22.337 70.5664 23.8342C70.5664 25.7968 70.9711 27.3547 71.8006 28.4877C72.6301 29.641 73.9655 30.2075 75.7864 30.2075C76.6564 30.2075 77.4657 29.9849 78.1941 29.5196C78.9427 29.0542 79.6104 28.4473 80.2376 27.6582C80.8648 26.8893 81.4111 26.0193 81.8765 25.0482C81.9979 24.7851 82.1193 24.5221 82.2407 24.2389L81.8562 26.1812C81.836 26.3026 81.7955 26.4645 81.7753 26.6668C81.7753 26.8489 81.7348 27.0714 81.7348 27.294C81.7348 28.164 81.9979 28.8519 82.5037 29.3982C83.0095 29.9242 83.8188 30.2075 84.9114 30.2075C85.9028 30.2075 86.7728 29.9647 87.5214 29.4994C88.27 29.034 88.9781 28.3259 89.6054 27.3547C90.2528 26.4038 90.8598 25.1898 91.487 23.7128L91.143 23.5914H91.1835ZM80.9053 26.1003C80.3388 27.0107 79.7318 27.7391 79.0844 28.2854C78.4369 28.8317 77.7895 29.0947 77.142 29.0947C76.4541 29.0947 75.9281 28.8114 75.5436 28.2247C75.1592 27.638 74.9569 26.7882 74.9569 25.6551C74.9569 24.684 75.0985 23.6116 75.3615 22.4584C75.6246 21.3051 75.9888 20.1114 76.4136 18.9379C76.8588 17.7644 77.3646 16.6718 77.9311 15.7007C78.4976 14.7093 79.1046 13.9202 79.7318 13.3132C80.359 12.7062 80.966 12.4027 81.573 12.4027C82.1395 12.4027 82.5644 12.5848 82.8881 12.9288C83.2118 13.2728 83.4546 13.7583 83.576 14.3653C83.7176 14.9723 83.7783 15.7007 83.7783 16.51C83.7783 17.5014 83.6569 18.5737 83.4142 19.7067C83.1714 20.8398 82.8274 21.9728 82.4025 23.0856C81.9776 24.1984 81.4718 25.21 80.9053 26.1205V26.1003Z" fill="#000006"/>
<path d="M122.745 12.5239C121.774 11.755 120.439 11.3706 118.699 11.3706C116.959 11.3706 115.502 11.7146 114.045 12.4227C112.609 13.1308 111.354 14.0818 110.262 15.2755C109.189 16.4692 108.34 17.8248 107.733 19.322C107.126 20.8193 106.822 22.3367 106.822 23.9149C106.822 25.1086 107.065 26.2012 107.551 27.1319C108.036 28.0828 108.744 28.8314 109.695 29.3575C110.646 29.9037 111.82 30.1668 113.216 30.1668C114.612 30.1668 115.947 29.9037 117.08 29.3979C118.213 28.8719 119.205 28.2042 120.075 27.3747C120.924 26.5451 121.653 25.6549 122.24 24.7242L121.936 24.5218C121.248 25.5537 120.5 26.4642 119.65 27.233C118.8 28.0019 117.91 28.6088 116.939 29.0337C115.967 29.4586 114.956 29.6812 113.883 29.6812C113.054 29.6812 112.386 29.4586 111.84 29.0135C111.314 28.5684 111.051 27.7186 111.051 26.4844C111.051 25.6549 111.152 24.7039 111.354 23.6518C111.456 23.1258 111.577 22.5795 111.719 22.0535C113.317 21.9321 114.834 21.7297 116.251 21.4262C117.829 21.1025 119.205 20.6372 120.398 20.0909C121.592 19.5244 122.523 18.8567 123.191 18.0474C123.858 17.2583 124.202 16.3478 124.202 15.3564C124.202 14.2234 123.717 13.2927 122.766 12.5239H122.745ZM119.913 15.9837C119.63 16.7323 119.205 17.4606 118.679 18.1283C118.132 18.796 117.485 19.403 116.736 19.929C115.988 20.4551 115.138 20.88 114.207 21.2037C113.459 21.4667 112.649 21.6488 111.8 21.7297C111.921 21.3048 112.042 20.8597 112.184 20.4146C112.548 19.3018 112.973 18.2295 113.459 17.2178C113.944 16.186 114.49 15.2553 115.077 14.4257C115.664 13.5962 116.271 12.9488 116.939 12.4632C117.586 11.9776 118.254 11.7348 118.921 11.7348C119.468 11.7348 119.832 11.9371 120.054 12.3418C120.257 12.7464 120.378 13.1915 120.378 13.6974C120.378 14.4662 120.237 15.235 119.953 15.9837H119.913Z" fill="#000006"/>
<path d="M106.822 12.2207C106.215 11.6744 105.426 11.3911 104.455 11.3911C103.585 11.3911 102.796 11.6541 102.068 12.1802C101.339 12.7062 100.692 13.4144 100.105 14.3046C99.5185 15.1949 98.9924 16.166 98.5068 17.2384C98.264 17.7846 98.0415 18.3309 97.8392 18.8772L99.6601 11.7553H92.1133V12.0993H95.3101L90.5352 30.167H94.9661L96.6252 23.6723C96.8478 22.7416 97.1512 21.7502 97.4952 20.6577C97.8392 19.5853 98.2438 18.513 98.6889 17.4609C99.134 16.4088 99.6399 15.4376 100.227 14.5676C100.793 13.6976 101.42 12.9895 102.128 12.4837C102.816 11.9576 103.585 11.7148 104.415 11.7148C105.184 11.7148 105.811 11.8969 106.296 12.2611C105.973 12.0993 105.609 11.9981 105.204 11.9981C103.828 11.9981 102.715 13.1109 102.715 14.4867C102.715 15.8625 103.828 16.9753 105.204 16.9753C106.58 16.9753 107.692 15.8625 107.692 14.4867C107.692 13.293 107.389 12.7265 106.782 12.1802L106.822 12.2207Z" fill="#000006"/>
<path d="M78.5585 4.00607C78.5585 3.80374 78.5383 3.60142 78.4978 3.39909C78.4169 2.91351 78.2348 2.54932 77.9717 2.14466C77.8706 2.00303 77.7694 1.86141 77.648 1.71978C77.5873 1.63885 77.5064 1.57815 77.4255 1.49722C77.3648 1.43652 77.3243 1.39605 77.2636 1.33536C76.9601 1.07233 76.6162 0.82954 76.1913 0.60698C75.4022 0.202327 74.4513 0 73.2778 0C71.9019 0 70.7082 0.242792 69.6764 0.748609C68.6445 1.25443 67.7542 1.94234 67.0056 2.85281C66.257 3.74304 65.6096 4.77491 65.0835 5.96864C64.5575 7.14213 64.1326 8.39656 63.8089 9.75215L63.3233 11.7754H59.1756V12.1194H63.2424L58.8721 30.3085C58.5686 31.5832 58.2449 32.7769 57.9414 33.8897C57.6379 35.0025 57.2737 35.9939 56.8893 36.8437C56.4846 37.6935 55.9991 38.3814 55.4325 38.867C54.866 39.3526 54.1781 39.5953 53.3688 39.5953C52.3976 39.5953 51.5883 39.4133 50.9207 39.0288C50.2934 38.6646 49.8079 38.2398 49.4841 37.7339C49.909 38.0577 50.4351 38.2802 51.0218 38.2802C52.3976 38.2802 53.5104 37.1674 53.5104 35.7916C53.5104 34.4158 52.3976 33.303 51.0218 33.303C49.646 33.303 48.5332 34.4158 48.5332 35.7916C48.5332 36.7425 48.7355 37.2686 49.12 37.8756C49.5044 38.4825 50.0911 38.9884 50.8802 39.393C51.649 39.7977 52.6202 40 53.7937 40C55.1695 40 56.3835 39.737 57.4153 39.2312C58.4674 38.7253 59.3577 38.0172 60.1265 37.127C60.8954 36.2367 61.5428 35.2049 62.0486 34.0314C62.5747 32.8579 62.9996 31.6034 63.3233 30.2478L67.6935 12.1194H73.6217V11.7754H67.7745L68.2803 9.71168C68.5838 8.43703 68.9075 7.22306 69.211 6.11027C69.5145 4.99747 69.8584 4.00607 70.2429 3.1563C70.6071 2.30652 71.0926 1.61861 71.6592 1.13303C72.2257 0.647446 72.8933 0.404654 73.6824 0.404654C74.6738 0.404654 75.5034 0.60698 76.1508 0.991401C76.3329 1.1128 76.515 1.23419 76.6769 1.35559C76.859 1.49722 77.0208 1.63885 77.1624 1.78048C77.3041 1.94234 77.4457 2.08397 77.5469 2.26606C77.122 1.94234 76.5959 1.71978 76.0092 1.71978C74.6334 1.71978 73.5206 2.83257 73.5206 4.2084C73.5206 5.58422 74.6334 6.69702 76.0092 6.69702C77.385 6.69702 78.4978 5.58422 78.4978 4.2084C78.4978 4.1477 78.4978 4.087 78.4978 4.0263C78.4978 4.0263 78.4978 4.00607 78.4978 3.98584L78.5585 4.00607Z" fill="#000006"/>
</g>
<defs>
<clipPath id="clip0_695_493">
<rect width="139.565" height="40" fill="white" transform="translate(0.216797)"/>
</clipPath>
</defs>
</svg>
