<svg width="136" height="40" viewBox="0 0 136 40" fill="none" xmlns="http://www.w3.org/2000/svg">
<g clip-path="url(#clip0_695_466)">
<path d="M85.2494 0.331055H89.4114C91.6796 0.331055 92.3133 1.62718 92.3133 2.8297C92.3133 3.7874 91.7876 4.88191 90.2827 5.19154L92.6085 8.84951H91.2404L88.9938 5.34276H86.4159V8.84951H85.2422V0.331055H85.2494ZM89.2314 4.37786C90.6355 4.37786 91.082 3.63619 91.082 2.8297C91.082 2.02322 90.6355 1.31755 89.2458 1.31755H86.4231V4.37786H89.2314Z" fill="#000006"/>
<path d="M100.975 7.87021V8.85671H94.4512V0.331055H100.896V1.31755H95.6321V3.99622H100.694V4.98272H95.6321V7.87741H100.982L100.975 7.87021Z" fill="#000006"/>
<path d="M105.929 0.331055H107.118L111.006 8.84951H109.767L108.81 6.63889H104.237L103.28 8.84951H102.041L105.929 0.331055ZM108.378 5.65959L106.815 2.08083C106.729 1.87921 106.621 1.62718 106.527 1.37516H106.505C106.419 1.62718 106.311 1.87921 106.232 2.08083L104.669 5.65959H108.378Z" fill="#000006"/>
<path d="M112.49 0.331055H113.663V7.84141H118.675V8.84951H112.482V0.331055H112.49Z" fill="#000006"/>
<path d="M119.144 0.331055H126.82V1.31755H123.565V8.84951H122.391V1.31755H119.137V0.331055H119.144Z" fill="#000006"/>
<path d="M130.65 5.60198L127.1 0.331055H128.482L131.017 4.14744C131.139 4.34186 131.211 4.48587 131.247 4.61548H131.269C131.305 4.48587 131.377 4.34186 131.499 4.14744L134.055 0.331055H135.438L131.852 5.60198V8.85671H130.664V5.60198H130.65Z" fill="#000006"/>
<path d="M124.586 35.0532H70.9336V35.4061H124.586V35.0532Z" fill="#000006"/>
<path d="M46.1207 35.0532H0.576172V35.4061H46.1207V35.0532Z" fill="#000006"/>
<path d="M42.4628 0.388672H34.5924V0.741507H38.0847L24.1729 23.683L22.8048 11.0385L29.0622 0.741507H32.7634V0.388672H0.576172V0.741507H4.11893L7.40245 30.1924H8.8282L17.9011 15.1357L19.5717 30.1924H20.6518L38.5168 0.741507H42.4628V0.388672ZM28.6518 0.741507L22.7472 10.4697L21.6887 0.741507H28.6518ZM12.3349 23.683L9.9083 0.741507H16.3097L17.8435 14.5669L12.3421 23.6902L12.3349 23.683Z" fill="#000006"/>
<path d="M46.6538 12.5219C45.6889 11.7586 44.3352 11.377 42.5998 11.377C40.8644 11.377 39.3955 11.7298 37.9554 12.4355C36.5152 13.1411 35.2551 14.0988 34.175 15.3013C33.0949 16.5039 32.2524 17.8504 31.6475 19.3409C31.0427 20.8315 30.7402 22.3581 30.7402 23.9278C30.7402 25.1303 30.9779 26.2032 31.4603 27.1537C31.9428 28.1042 32.6628 28.8459 33.6133 29.386C34.5638 29.926 35.7375 30.1996 37.1417 30.1996C38.5458 30.1996 39.8707 29.9404 41.0013 29.422C42.139 28.9035 43.1327 28.2338 43.9896 27.4058C44.8464 26.5777 45.5665 25.692 46.1498 24.7487L45.8473 24.5543C45.1705 25.584 44.4072 26.4913 43.5647 27.2617C42.7222 28.0322 41.8149 28.6299 40.8428 29.0547C39.8707 29.4796 38.8554 29.6956 37.7969 29.6956C36.9689 29.6956 36.292 29.4724 35.7591 29.0187C35.2263 28.5651 34.9671 27.7226 34.9671 26.4769C34.9671 25.6416 35.0679 24.6983 35.2623 23.6542C35.3631 23.1285 35.4855 22.5885 35.6223 22.0484C37.2209 21.9332 38.733 21.7316 40.1516 21.4292C41.7213 21.0979 43.1039 20.6515 44.2992 20.0826C45.4945 19.521 46.4306 18.8369 47.1003 18.0448C47.7699 17.2455 48.1084 16.3527 48.1084 15.359C48.1084 14.2356 47.6259 13.2923 46.661 12.5219H46.6538ZM43.8239 15.9854C43.5359 16.7415 43.1255 17.4616 42.5782 18.1312C42.0382 18.8081 41.3901 19.4058 40.6412 19.9242C39.8924 20.4499 39.0499 20.8747 38.1138 21.1987C37.3577 21.4652 36.5512 21.638 35.7015 21.7316C35.8167 21.2995 35.9392 20.8603 36.0832 20.4139C36.4432 19.3049 36.868 18.232 37.3577 17.2095C37.8473 16.187 38.3802 15.2581 38.9707 14.4229C39.5539 13.5948 40.1732 12.9323 40.8284 12.4499C41.4837 11.9674 42.139 11.7226 42.8086 11.7226C43.3487 11.7226 43.7303 11.9242 43.9392 12.3274C44.148 12.7307 44.256 13.1843 44.256 13.6812C44.256 14.4517 44.112 15.2149 43.8311 15.9782L43.8239 15.9854Z" fill="#000006"/>
<path d="M56.1873 27.1321C55.6112 27.989 55.0495 28.5939 54.4951 28.9539C53.9406 29.314 53.4078 29.494 52.8965 29.494C52.4357 29.494 52.2053 29.2852 52.2053 28.8675C52.2053 28.7739 52.2053 28.6731 52.2269 28.5651C52.2413 28.4571 52.2629 28.3419 52.2845 28.2195L60.0901 0.388672H51.8956V0.741507H55.5464L48.4537 25.98C48.4105 26.16 48.3673 26.3905 48.3097 26.6641C48.2521 26.9377 48.2305 27.2402 48.2305 27.5642C48.2305 28.3491 48.5185 28.9827 49.0874 29.4652C49.6562 29.9476 50.5491 30.1924 51.7588 30.1924C52.7813 30.1924 53.667 29.9548 54.4303 29.4868C55.1936 29.0187 55.8848 28.3059 56.5185 27.3482C57.1522 26.3977 57.7714 25.1807 58.3835 23.6974L58.0379 23.5822C57.3826 25.0871 56.7705 26.2681 56.1945 27.1249L56.1873 27.1321Z" fill="#000006"/>
<path d="M91.5643 23.5894C90.9234 25.0943 90.3113 26.2752 89.7281 27.1321C89.1448 27.989 88.576 28.5939 88.0287 28.9539C87.4815 29.3139 86.9414 29.494 86.4085 29.494C86.1637 29.494 85.9837 29.4292 85.8757 29.3067C85.7677 29.1843 85.7101 29.0187 85.7101 28.8243C85.7101 28.6299 85.7389 28.4283 85.7893 28.2194L90.3329 11.7658H85.6885L84.4644 16.5831C84.4644 16.5831 84.4644 16.5471 84.4644 16.5327C84.4644 15.6182 84.3635 14.7685 84.1619 13.9836C83.9603 13.1987 83.6075 12.5651 83.1034 12.0898C82.5994 11.6146 81.8937 11.377 80.9864 11.377C79.7767 11.377 78.5814 11.737 77.386 12.4643C76.1979 13.1915 75.1106 14.1564 74.1385 15.359C73.1592 16.5615 72.3815 17.9008 71.8055 19.3698C71.2294 20.8387 70.9414 22.3292 70.9414 23.8342C70.9414 25.7928 71.3518 27.3481 72.1871 28.4931C73.0152 29.638 74.3473 30.2068 76.1835 30.2068C77.0548 30.2068 77.8613 29.9764 78.5958 29.5084C79.3374 29.0475 80.0143 28.4283 80.6336 27.6578C81.2528 26.8873 81.8001 26.016 82.2753 25.0511C82.405 24.7847 82.513 24.5183 82.6354 24.2518L82.2609 26.1888C82.2321 26.3184 82.2105 26.4769 82.1889 26.6713C82.1673 26.8585 82.1601 27.0745 82.1601 27.3049C82.1601 28.169 82.4122 28.8675 82.9234 29.4004C83.4347 29.9332 84.2411 30.2068 85.3356 30.2068C86.3293 30.2068 87.2006 29.9692 87.9567 29.5012C88.7128 29.0331 89.4041 28.3202 90.0449 27.3626C90.6858 26.4121 91.3122 25.1951 91.9171 23.7118L91.5715 23.5966L91.5643 23.5894ZM81.2816 26.1024C80.72 27.0169 80.1079 27.7442 79.4599 28.2914C78.8046 28.8315 78.1637 29.1051 77.5229 29.1051C76.846 29.1051 76.3131 28.8171 75.9243 28.2338C75.5355 27.6506 75.341 26.7937 75.341 25.656C75.341 24.6911 75.4707 23.6182 75.7371 22.4517C76.0035 21.2779 76.3563 20.1114 76.7956 18.9305C77.2348 17.7568 77.7461 16.6695 78.3149 15.683C78.8838 14.6965 79.4815 13.9044 80.1079 13.2995C80.7344 12.6947 81.3464 12.3995 81.9441 12.3995C82.4986 12.3995 82.945 12.5723 83.269 12.9179C83.5931 13.2635 83.8235 13.746 83.9603 14.3581C84.0971 14.9701 84.1619 15.683 84.1619 16.4967C84.1619 17.4904 84.0395 18.5561 83.7947 19.6938C83.5499 20.8315 83.2114 21.9548 82.7722 23.0637C82.3401 24.1726 81.8361 25.1879 81.2744 26.1024H81.2816Z" fill="#000006"/>
<path d="M123.14 12.5219C122.175 11.7586 120.822 11.377 119.086 11.377C117.351 11.377 115.882 11.7298 114.442 12.4355C113.002 13.1411 111.741 14.0988 110.661 15.3013C109.581 16.5039 108.739 17.8504 108.134 19.3409C107.529 20.8315 107.227 22.3581 107.227 23.9278C107.227 25.1303 107.464 26.2032 107.947 27.1537C108.429 28.1042 109.149 28.8459 110.1 29.386C111.05 29.926 112.224 30.1996 113.628 30.1996C115.032 30.1996 116.357 29.9404 117.488 29.422C118.625 28.9035 119.619 28.2338 120.476 27.4058C121.333 26.5777 122.053 25.692 122.636 24.7487L122.334 24.5543C121.657 25.584 120.894 26.4913 120.051 27.2617C119.209 28.0322 118.301 28.6299 117.329 29.0547C116.357 29.4796 115.342 29.6956 114.283 29.6956C113.455 29.6956 112.778 29.4724 112.245 29.0187C111.713 28.5651 111.453 27.7226 111.453 26.4769C111.453 25.6416 111.554 24.6983 111.749 23.6542C111.849 23.1285 111.972 22.5885 112.109 22.0484C113.707 21.9332 115.219 21.7316 116.638 21.4292C118.208 21.0979 119.59 20.6515 120.786 20.0826C121.981 19.521 122.917 18.8369 123.587 18.0448C124.256 17.2455 124.595 16.3527 124.595 15.359C124.595 14.2356 124.112 13.2923 123.147 12.5219H123.14ZM120.31 15.9854C120.022 16.7415 119.612 17.4616 119.065 18.1312C118.524 18.8081 117.876 19.4058 117.128 19.9242C116.379 20.4499 115.536 20.8747 114.6 21.1987C113.844 21.4652 113.038 21.638 112.188 21.7316C112.303 21.2995 112.425 20.8603 112.569 20.4139C112.93 19.3049 113.354 18.232 113.844 17.2095C114.334 16.187 114.867 15.2581 115.457 14.4229C116.04 13.5948 116.66 12.9323 117.315 12.4499C117.97 11.9674 118.625 11.7226 119.295 11.7226C119.835 11.7226 120.217 11.9242 120.425 12.3274C120.634 12.7307 120.742 13.1843 120.742 13.6812C120.742 14.4517 120.598 15.2149 120.317 15.9782L120.31 15.9854Z" fill="#000006"/>
<path d="M107.205 12.2198C106.6 11.6726 105.808 11.3989 104.829 11.3989C103.958 11.3989 103.166 11.6654 102.446 12.191C101.726 12.7239 101.07 13.4295 100.48 14.3152C99.8893 15.2009 99.3565 16.1874 98.8884 17.2603C98.6508 17.8004 98.4348 18.3476 98.226 18.9021L100.041 11.7734H92.5014V12.1262H95.6985L90.9316 30.2072H95.3529L97.0018 23.7194H97.0234C97.2539 22.7905 97.5491 21.7896 97.9019 20.7095C98.2548 19.6293 98.658 18.5636 99.1045 17.5123C99.5509 16.461 100.062 15.4961 100.631 14.6176C101.2 13.7392 101.834 13.0479 102.525 12.5294C103.216 12.011 103.979 11.7518 104.807 11.7518C105.578 11.7518 106.204 11.939 106.701 12.2918C106.37 12.1334 106.01 12.0326 105.621 12.0326C104.246 12.0326 103.13 13.1487 103.13 14.524C103.13 15.8994 104.246 17.0155 105.621 17.0155C106.996 17.0155 108.113 15.9066 108.113 14.5168C108.113 13.3215 107.81 12.7599 107.205 12.2126V12.2198Z" fill="#000006"/>
<path d="M78.9423 4.00336C78.9423 3.80174 78.9135 3.59292 78.8775 3.3985C78.7911 2.91605 78.6183 2.54161 78.3518 2.13117C78.2582 1.98716 78.1502 1.84314 78.0278 1.71353C77.963 1.63432 77.8838 1.56952 77.8118 1.49751C77.7614 1.4471 77.711 1.3895 77.6534 1.33909C77.3509 1.07267 76.9981 0.827842 76.5876 0.619021C75.81 0.21578 74.8379 0.0141602 73.6858 0.0141602C72.3104 0.0141602 71.1079 0.266185 70.0782 0.770236C69.0485 1.27429 68.1556 1.97276 67.3995 2.86565C66.6435 3.75853 66.0098 4.79544 65.4841 5.97636C64.9585 7.15007 64.5336 8.4174 64.2096 9.76394L63.7272 11.7801H59.5724V12.133H63.6408L59.2771 30.3292C58.9675 31.5965 58.6579 32.7918 58.3482 33.908C58.0458 35.0241 57.6858 36.0106 57.2897 36.8674C56.8865 37.7243 56.404 38.394 55.8424 38.8836C55.2807 39.3733 54.5894 39.6181 53.7758 39.6181C52.8109 39.6181 51.9972 39.4309 51.3275 39.0493C50.7011 38.6892 50.2186 38.2572 49.8874 37.7459C50.3122 38.0772 50.8379 38.286 51.4211 38.286C52.7965 38.286 53.9126 37.1699 53.9126 35.7945C53.9126 34.4192 52.7965 33.3031 51.4211 33.3031C50.0458 33.3031 48.9297 34.4192 48.9297 35.7945C48.9297 36.7378 49.1241 37.2779 49.5201 37.8827C49.9162 38.4876 50.4994 38.9989 51.2699 39.4021C52.0476 39.8053 53.0125 40.007 54.1862 40.007C55.5615 40.007 56.7713 39.7549 57.8154 39.2437C58.8595 38.7324 59.7668 38.034 60.5372 37.1483C61.3077 36.2626 61.9486 35.2257 62.4598 34.052C62.9783 32.8782 63.4031 31.6109 63.7416 30.2644L68.1124 12.1258H74.0458V11.7729H68.1988L68.6957 9.71353C69.0053 8.4318 69.3221 7.23648 69.6318 6.11317C69.9414 4.99706 70.287 4.01056 70.6615 3.15367C71.0359 2.29679 71.5039 1.62712 72.0656 1.13747C72.6273 0.647824 73.3041 0.402999 74.0962 0.402999C75.0899 0.402999 75.9108 0.597419 76.5732 0.979057C76.7677 1.09427 76.9405 1.20948 77.0989 1.33909H77.0917C77.2717 1.47591 77.4301 1.61992 77.5814 1.77114C77.5814 1.77114 77.5886 1.78554 77.5958 1.78554C77.7398 1.93675 77.8694 2.10237 77.9846 2.26799C77.5597 1.93675 77.0341 1.72793 76.4508 1.72793C75.0755 1.72793 73.9594 2.84404 73.9594 4.21938C73.9594 5.59472 75.0755 6.71083 76.4508 6.71083C77.8262 6.71083 78.9423 5.59472 78.9423 4.21938C78.9423 4.15457 78.9423 4.10417 78.9423 4.04656C78.9423 4.03216 78.9423 4.02496 78.9423 4.00336Z" fill="#000006"/>
</g>
<defs>
<clipPath id="clip0_695_466">
<rect width="134.848" height="40" fill="white" transform="translate(0.576172)"/>
</clipPath>
</defs>
</svg>
