<svg width="149" height="40" viewBox="0 0 149 40" fill="none" xmlns="http://www.w3.org/2000/svg">
<g clip-path="url(#clip0_695_529)">
<path d="M84.2266 4.5798C84.2266 1.91553 85.9403 0.09375 88.8134 0.09375C91.1537 0.09375 92.5434 1.29627 92.9034 3.17566L91.6793 3.29807C91.3913 1.92993 90.3688 1.08745 88.7486 1.08745C86.682 1.08745 85.4507 2.46999 85.4507 4.5654C85.4507 6.66081 86.6964 8.07935 88.7846 8.07935C90.3184 8.07935 91.3553 7.30887 91.7225 5.97674L92.889 6.17836C92.3994 7.92093 91.0672 9.08025 88.763 9.08025C85.8107 9.08025 84.2266 7.15046 84.2266 4.5654V4.5798Z" fill="#000006"/>
<path d="M93.8398 4.5942C93.8398 1.84353 95.6904 0.09375 98.4483 0.09375C101.206 0.09375 103.071 1.84353 103.071 4.5942C103.071 7.34488 101.221 9.09465 98.4483 9.09465C95.676 9.09465 93.8398 7.30887 93.8398 4.5942ZM98.4483 8.10815C100.522 8.10815 101.833 6.72561 101.833 4.5942C101.833 2.46279 100.522 1.08025 98.4483 1.08025C96.3745 1.08025 95.0784 2.44839 95.0784 4.5942C95.0784 6.74002 96.3889 8.10815 98.4483 8.10815Z" fill="#000006"/>
<path d="M105.764 0.331543V5.42245C105.764 6.949 106.757 8.07232 108.5 8.07232C110.242 8.07232 111.222 6.9418 111.222 5.42245V0.331543H112.41V5.48006C112.41 7.58987 111.006 9.09482 108.5 9.09482C105.994 9.09482 104.59 7.59707 104.59 5.48006V0.331543H105.764Z" fill="#000006"/>
<path d="M113.626 0.331543H121.302V1.31804H118.048V8.84999H116.874V1.31804H113.619V0.331543H113.626Z" fill="#000006"/>
<path d="M123.709 0.331543V5.42245C123.709 6.949 124.703 8.07232 126.445 8.07232C128.188 8.07232 129.167 6.9418 129.167 5.42245V0.331543H130.355V5.48006C130.355 7.58987 128.951 9.09482 126.445 9.09482C123.939 9.09482 122.535 7.59707 122.535 5.48006V0.331543H123.709Z" fill="#000006"/>
<path d="M132.703 0.331543H136.865C139.133 0.331543 139.766 1.62767 139.766 2.83019C139.766 3.78789 139.241 4.8824 137.736 5.19203L140.062 8.84999H138.694L136.447 5.34324H133.869V8.84999H132.695V0.331543H132.703ZM136.685 4.37835C138.089 4.37835 138.535 3.63667 138.535 2.83019C138.535 2.02371 138.089 1.31804 136.699 1.31804H133.876V4.37835H136.685Z" fill="#000006"/>
<path d="M148.428 7.8707V8.8572H141.904V0.331543H148.349V1.31804H143.085V3.98951H148.147V4.97601H143.085V7.8707H148.435H148.428Z" fill="#000006"/>
<path d="M124.385 35.0532H70.7324V35.4061H124.385V35.0532Z" fill="#000006"/>
<path d="M45.9196 35.0532H0.375V35.4061H45.9196V35.0532Z" fill="#000006"/>
<path d="M42.2616 0.388672H34.3912V0.741507H37.8835L23.9718 23.683L22.6036 11.0385L28.861 0.741507H32.5622V0.388672H0.375V0.741507H3.91775L7.20128 30.1924H8.62702L17.6999 15.1357L19.3705 30.1924H20.4506L38.3156 0.741507H42.2616V0.388672ZM28.4506 0.741507L22.546 10.4697L21.4875 0.741507H28.4506ZM12.1338 23.683L9.70713 0.741507H16.1086L17.6423 14.5669L12.141 23.6902L12.1338 23.683Z" fill="#000006"/>
<path d="M46.4527 12.5219C45.4878 11.7586 44.134 11.377 42.3986 11.377C40.6633 11.377 39.1943 11.7298 37.7542 12.4355C36.314 13.1411 35.0539 14.0988 33.9738 15.3013C32.8937 16.5039 32.0512 17.8504 31.4464 19.3409C30.8415 20.8315 30.5391 22.3581 30.5391 23.9278C30.5391 25.1303 30.7767 26.2032 31.2591 27.1537C31.7416 28.1042 32.4617 28.8459 33.4122 29.386C34.3626 29.926 35.5364 30.1996 36.9405 30.1996C38.3446 30.1996 39.6696 29.9404 40.8001 29.422C41.9378 28.9035 42.9315 28.2338 43.7884 27.4058C44.6453 26.5777 45.3653 25.692 45.9486 24.7487L45.6462 24.5543C44.9693 25.584 44.206 26.4913 43.3635 27.2617C42.5211 28.0322 41.6138 28.6299 40.6417 29.0547C39.6696 29.4796 38.6543 29.6956 37.5958 29.6956C36.7677 29.6956 36.0908 29.4724 35.558 29.0187C35.0251 28.5651 34.7659 27.7226 34.7659 26.4769C34.7659 25.6416 34.8667 24.6983 35.0611 23.6542C35.1619 23.1285 35.2843 22.5885 35.4211 22.0484C37.0197 21.9332 38.5319 21.7316 39.9504 21.4292C41.5202 21.0979 42.9027 20.6515 44.098 20.0826C45.2933 19.521 46.2294 18.8369 46.8991 18.0448C47.5688 17.2455 47.9072 16.3527 47.9072 15.359C47.9072 14.2356 47.4248 13.2923 46.4599 12.5219H46.4527ZM43.6228 15.9854C43.3347 16.7415 42.9243 17.4616 42.377 18.1312C41.837 18.8081 41.1889 19.4058 40.4401 19.9242C39.6912 20.4499 38.8487 20.8747 37.9126 21.1987C37.1565 21.4652 36.35 21.638 35.5004 21.7316C35.6156 21.2995 35.738 20.8603 35.882 20.4139C36.242 19.3049 36.6669 18.232 37.1565 17.2095C37.6462 16.187 38.179 15.2581 38.7695 14.4229C39.3527 13.5948 39.972 12.9323 40.6273 12.4499C41.2825 11.9674 41.9378 11.7226 42.6075 11.7226C43.1475 11.7226 43.5292 11.9242 43.738 12.3274C43.9468 12.7307 44.0548 13.1843 44.0548 13.6812C44.0548 14.4517 43.9108 15.2149 43.63 15.9782L43.6228 15.9854Z" fill="#000006"/>
<path d="M55.9861 27.1321C55.41 27.989 54.8484 28.5939 54.2939 28.9539C53.7395 29.314 53.2066 29.494 52.6954 29.494C52.2345 29.494 52.0041 29.2852 52.0041 28.8675C52.0041 28.7739 52.0041 28.6731 52.0257 28.5651C52.0401 28.4571 52.0617 28.3419 52.0833 28.2195L59.8889 0.388672H51.6945V0.741507H55.3452L48.2525 25.98C48.2093 26.16 48.1661 26.3905 48.1085 26.6641C48.0509 26.9377 48.0293 27.2402 48.0293 27.5642C48.0293 28.3491 48.3173 28.9827 48.8862 29.4652C49.455 29.9476 50.3479 30.1924 51.5577 30.1924C52.5802 30.1924 53.4658 29.9548 54.2291 29.4868C54.9924 29.0187 55.6837 28.3059 56.3173 27.3482C56.951 26.3977 57.5702 25.1807 58.1823 23.6974L57.8367 23.5822C57.1814 25.0871 56.5693 26.2681 55.9933 27.1249L55.9861 27.1321Z" fill="#000006"/>
<path d="M91.3631 23.5894C90.7222 25.0943 90.1102 26.2752 89.5269 27.1321C88.9437 27.989 88.3748 28.5939 87.8275 28.9539C87.2803 29.3139 86.7402 29.494 86.2074 29.494C85.9626 29.494 85.7825 29.4292 85.6745 29.3067C85.5665 29.1843 85.5089 29.0187 85.5089 28.8243C85.5089 28.6299 85.5377 28.4283 85.5881 28.2194L90.1318 11.7658H85.4873L84.2632 16.5831C84.2632 16.5831 84.2632 16.5471 84.2632 16.5327C84.2632 15.6182 84.1624 14.7685 83.9608 13.9836C83.7591 13.1987 83.4063 12.5651 82.9022 12.0898C82.3982 11.6146 81.6925 11.377 80.7852 11.377C79.5755 11.377 78.3802 11.737 77.1849 12.4643C75.9968 13.1915 74.9095 14.1564 73.9374 15.359C72.9581 16.5615 72.1804 17.9008 71.6043 19.3698C71.0283 20.8387 70.7402 22.3292 70.7402 23.8342C70.7402 25.7928 71.1507 27.3481 71.986 28.4931C72.814 29.638 74.1462 30.2068 75.9824 30.2068C76.8536 30.2068 77.6601 29.9764 78.3946 29.5084C79.1363 29.0475 79.8131 28.4283 80.4324 27.6578C81.0517 26.8873 81.5989 26.016 82.0742 25.0511C82.2038 24.7847 82.3118 24.5183 82.4342 24.2518L82.0598 26.1888C82.031 26.3184 82.0094 26.4769 81.9878 26.6713C81.9662 26.8585 81.959 27.0745 81.959 27.3049C81.959 28.169 82.211 28.8675 82.7222 29.4004C83.2335 29.9332 84.04 30.2068 85.1345 30.2068C86.1282 30.2068 86.9995 29.9692 87.7555 29.5012C88.5116 29.0331 89.2029 28.3202 89.8437 27.3626C90.4846 26.4121 91.1111 25.1951 91.7159 23.7118L91.3703 23.5966L91.3631 23.5894ZM81.0805 26.1024C80.5188 27.0169 79.9068 27.7442 79.2587 28.2914C78.6034 28.8315 77.9626 29.1051 77.3217 29.1051C76.6448 29.1051 76.112 28.8171 75.7231 28.2338C75.3343 27.6506 75.1399 26.7937 75.1399 25.656C75.1399 24.6911 75.2695 23.6182 75.5359 22.4517C75.8023 21.2779 76.1552 20.1114 76.5944 18.9305C77.0337 17.7568 77.5449 16.6695 78.1138 15.683C78.6826 14.6965 79.2803 13.9044 79.9067 13.2995C80.5332 12.6947 81.1453 12.3995 81.7429 12.3995C82.2974 12.3995 82.7438 12.5723 83.0679 12.9179C83.3919 13.2635 83.6223 13.746 83.7591 14.3581C83.896 14.9701 83.9608 15.683 83.9608 16.4967C83.9608 17.4904 83.8383 18.5561 83.5935 19.6938C83.3487 20.8315 83.0103 21.9548 82.571 23.0637C82.139 24.1726 81.6349 25.1879 81.0733 26.1024H81.0805Z" fill="#000006"/>
<path d="M122.939 12.5219C121.974 11.7586 120.62 11.377 118.885 11.377C117.15 11.377 115.681 11.7298 114.241 12.4355C112.8 13.1411 111.54 14.0988 110.46 15.3013C109.38 16.5039 108.538 17.8504 107.933 19.3409C107.328 20.8315 107.025 22.3581 107.025 23.9278C107.025 25.1303 107.263 26.2032 107.745 27.1537C108.228 28.1042 108.948 28.8459 109.898 29.386C110.849 29.926 112.023 30.1996 113.427 30.1996C114.831 30.1996 116.156 29.9404 117.286 29.422C118.424 28.9035 119.418 28.2338 120.275 27.4058C121.132 26.5777 121.852 25.692 122.435 24.7487L122.132 24.5543C121.456 25.584 120.692 26.4913 119.85 27.2617C119.007 28.0322 118.1 28.6299 117.128 29.0547C116.156 29.4796 115.141 29.6956 114.082 29.6956C113.254 29.6956 112.577 29.4724 112.044 29.0187C111.511 28.5651 111.252 27.7226 111.252 26.4769C111.252 25.6416 111.353 24.6983 111.547 23.6542C111.648 23.1285 111.771 22.5885 111.907 22.0484C113.506 21.9332 115.018 21.7316 116.437 21.4292C118.006 21.0979 119.389 20.6515 120.584 20.0826C121.78 19.521 122.716 18.8369 123.385 18.0448C124.055 17.2455 124.394 16.3527 124.394 15.359C124.394 14.2356 123.911 13.2923 122.946 12.5219H122.939ZM120.109 15.9854C119.821 16.7415 119.411 17.4616 118.863 18.1312C118.323 18.8081 117.675 19.4058 116.926 19.9242C116.178 20.4499 115.335 20.8747 114.399 21.1987C113.643 21.4652 112.836 21.638 111.987 21.7316C112.102 21.2995 112.224 20.8603 112.368 20.4139C112.728 19.3049 113.153 18.232 113.643 17.2095C114.133 16.187 114.665 15.2581 115.256 14.4229C115.839 13.5948 116.458 12.9323 117.114 12.4499C117.769 11.9674 118.424 11.7226 119.094 11.7226C119.634 11.7226 120.015 11.9242 120.224 12.3274C120.433 12.7307 120.541 13.1843 120.541 13.6812C120.541 14.4517 120.397 15.2149 120.116 15.9782L120.109 15.9854Z" fill="#000006"/>
<path d="M107.004 12.2198C106.399 11.6726 105.607 11.3989 104.628 11.3989C103.757 11.3989 102.964 11.6654 102.244 12.191C101.524 12.7239 100.869 13.4295 100.279 14.3152C99.6882 15.2009 99.1553 16.1874 98.6873 17.2603C98.4496 17.8004 98.2336 18.3476 98.0248 18.9021L99.8394 11.7734H92.3002V12.1262H95.4973L90.7305 30.2072H95.1517L96.8007 23.7194H96.8223C97.0527 22.7905 97.3479 21.7896 97.7008 20.7095C98.0536 19.6293 98.4568 18.5636 98.9033 17.5123C99.3497 16.461 99.861 15.4961 100.43 14.6176C100.999 13.7392 101.632 13.0479 102.324 12.5294C103.015 12.011 103.778 11.7518 104.606 11.7518C105.377 11.7518 106.003 11.939 106.5 12.2918C106.169 12.1334 105.809 12.0326 105.42 12.0326C104.045 12.0326 102.928 13.1487 102.928 14.524C102.928 15.8994 104.045 17.0155 105.42 17.0155C106.795 17.0155 107.911 15.9066 107.911 14.5168C107.911 13.3215 107.609 12.7599 107.004 12.2126V12.2198Z" fill="#000006"/>
<path d="M78.7411 4.00336C78.7411 3.80174 78.7123 3.59292 78.6763 3.3985C78.5899 2.91605 78.4171 2.54161 78.1507 2.13117C78.057 1.98716 77.949 1.84314 77.8266 1.71353C77.7618 1.63432 77.6826 1.56952 77.6106 1.49751C77.5602 1.4471 77.5098 1.3895 77.4522 1.33909C77.1498 1.07267 76.7969 0.827842 76.3865 0.619021C75.6088 0.21578 74.6367 0.0141602 73.4846 0.0141602C72.1093 0.0141602 70.9067 0.266185 69.877 0.770236C68.8473 1.27429 67.9544 1.97276 67.1984 2.86565C66.4423 3.75853 65.8086 4.79544 65.283 5.97636C64.7573 7.15007 64.3325 8.4174 64.0084 9.76394L63.526 11.7801H59.3712V12.133H63.4396L59.0759 30.3292C58.7663 31.5965 58.4567 32.7918 58.1471 33.908C57.8446 35.0241 57.4846 36.0106 57.0886 36.8674C56.6853 37.7243 56.2029 38.394 55.6412 38.8836C55.0795 39.3733 54.3883 39.6181 53.5746 39.6181C52.6097 39.6181 51.796 39.4309 51.1264 39.0493C50.4999 38.6892 50.0174 38.2572 49.6862 37.7459C50.1111 38.0772 50.6367 38.286 51.22 38.286C52.5953 38.286 53.7114 37.1699 53.7114 35.7945C53.7114 34.4192 52.5953 33.3031 51.22 33.3031C49.8446 33.3031 48.7285 34.4192 48.7285 35.7945C48.7285 36.7378 48.9229 37.2779 49.319 37.8827C49.715 38.4876 50.2983 38.9989 51.0687 39.4021C51.8464 39.8053 52.8113 40.007 53.985 40.007C55.3604 40.007 56.5701 39.7549 57.6142 39.2437C58.6583 38.7324 59.5656 38.034 60.3361 37.1483C61.1065 36.2626 61.7474 35.2257 62.2587 34.052C62.7771 32.8782 63.202 31.6109 63.5404 30.2644L67.9112 12.1258H73.8446V11.7729H67.9976L68.4945 9.71353C68.8041 8.4318 69.121 7.23648 69.4306 6.11317C69.7402 4.99706 70.0858 4.01056 70.4603 3.15367C70.8347 2.29679 71.3028 1.62712 71.8644 1.13747C72.4261 0.647824 73.1029 0.402999 73.895 0.402999C74.8887 0.402999 75.7096 0.597419 76.3721 0.979057C76.5665 1.09427 76.7393 1.20948 76.8977 1.33909H76.8905C77.0705 1.47591 77.229 1.61992 77.3802 1.77114C77.3802 1.77114 77.3874 1.78554 77.3946 1.78554C77.5386 1.93675 77.6682 2.10237 77.7834 2.26799C77.3586 1.93675 76.8329 1.72793 76.2497 1.72793C74.8743 1.72793 73.7582 2.84404 73.7582 4.21938C73.7582 5.59472 74.8743 6.71083 76.2497 6.71083C77.625 6.71083 78.7411 5.59472 78.7411 4.21938C78.7411 4.15457 78.7411 4.10417 78.7411 4.04656C78.7411 4.03216 78.7411 4.02496 78.7411 4.00336Z" fill="#000006"/>
</g>
<defs>
<clipPath id="clip0_695_529">
<rect width="148.054" height="40" fill="white" transform="translate(0.375)"/>
</clipPath>
</defs>
</svg>
