<svg width="156" height="40" viewBox="0 0 156 40" fill="none" xmlns="http://www.w3.org/2000/svg">
<g clip-path="url(#clip0_695_191)">
<path d="M84.0488 0.331543H85.3234L87.9732 6.74738C88.1316 7.16503 88.2252 7.45305 88.2829 7.73388H88.3189C88.3765 7.46026 88.4629 7.17223 88.6285 6.74738L91.2712 0.331543H92.5529L88.9525 8.84999H87.6492L84.0488 0.331543Z" fill="#000006"/>
<path d="M100.516 7.8707V8.8572H93.9922V0.331543H100.437V1.31804H95.1731V3.99671H100.235V4.98321H95.1731V7.8779H100.523L100.516 7.8707Z" fill="#000006"/>
<path d="M102.662 0.331543H104.088L108.804 6.61777C109.056 6.97781 109.222 7.26584 109.344 7.58987H109.373C109.359 7.26584 109.359 6.9562 109.359 6.50976V0.331543H110.417V8.84999H109.064L104.275 2.47736C104.037 2.13172 103.857 1.85089 103.735 1.54126H103.713C103.728 1.84369 103.735 2.15332 103.735 2.58537V8.84999H102.669V0.331543H102.662Z" fill="#000006"/>
<path d="M111.851 0.331543H119.527V1.31804H116.272V8.84999H115.098V1.31804H111.844V0.331543H111.851Z" fill="#000006"/>
<path d="M121.932 0.331543V5.41525C121.932 6.9418 122.925 8.06512 124.668 8.06512C126.41 8.06512 127.39 6.9346 127.39 5.41525V0.331543H128.578V5.48006C128.578 7.58987 127.174 9.09482 124.668 9.09482C122.162 9.09482 120.758 7.59707 120.758 5.48006V0.331543H121.932Z" fill="#000006"/>
<path d="M130.926 0.331543H135.088C137.356 0.331543 137.99 1.62767 137.99 2.83019C137.99 3.78789 137.464 4.8824 135.966 5.19203L138.292 8.84999H136.924L134.677 5.34324H132.1V8.84999H130.926V0.331543ZM134.908 4.37835C136.312 4.37835 136.758 3.63667 136.758 2.83019C136.758 2.02371 136.312 1.31804 134.922 1.31804H132.107V4.37835H134.915H134.908Z" fill="#000006"/>
<path d="M146.653 7.8707V8.8572H140.129V0.331543H146.574V1.31804H141.31V3.99671H146.372V4.98321H141.31V7.8779H146.66L146.653 7.8707Z" fill="#000006"/>
<path d="M147.984 6.27197L149.187 6.07035C149.489 7.28007 150.397 8.12255 152.197 8.12255C153.615 8.12255 154.573 7.70491 154.573 6.632C154.573 5.67431 153.939 5.31427 152.701 5.13425L150.829 4.88223C149.302 4.65181 148.395 3.98214 148.395 2.542C148.395 1.10185 149.691 0.09375 151.887 0.09375C154.083 0.09375 155.38 0.900231 155.74 2.5924L154.566 2.88043C154.278 1.67791 153.45 1.04425 151.866 1.04425C150.461 1.04425 149.612 1.5627 149.612 2.44839C149.612 3.29087 150.094 3.68691 151.304 3.86693L153.14 4.13335C154.811 4.38538 155.79 5.01904 155.79 6.53119C155.79 8.04334 154.616 9.10185 152.175 9.10185C149.734 9.10185 148.323 8.02174 147.992 6.27917L147.984 6.27197Z" fill="#000006"/>
<path d="M124.516 35.0532H70.8633V35.4061H124.516V35.0532Z" fill="#000006"/>
<path d="M46.0504 35.0532H0.505859V35.4061H46.0504V35.0532Z" fill="#000006"/>
<path d="M42.3924 0.388672H34.5221V0.741507H38.0144L24.1026 23.683L22.7345 11.0385L28.9919 0.741507H32.6931V0.388672H0.505859V0.741507H4.04861L7.33214 30.1924H8.75788L17.8308 15.1357L19.5014 30.1924H20.5815L38.4465 0.741507H42.3924V0.388672ZM28.5815 0.741507L22.6769 10.4697L21.6184 0.741507H28.5815ZM12.2646 23.683L9.83799 0.741507H16.2394L17.7732 14.5669L12.2718 23.6902L12.2646 23.683Z" fill="#000006"/>
<path d="M46.5835 12.5219C45.6186 11.7586 44.2649 11.377 42.5295 11.377C40.7941 11.377 39.3252 11.7298 37.885 12.4355C36.4449 13.1411 35.1848 14.0988 34.1047 15.3013C33.0246 16.5039 32.1821 17.8504 31.5772 19.3409C30.9724 20.8315 30.6699 22.3581 30.6699 23.9278C30.6699 25.1303 30.9075 26.2032 31.39 27.1537C31.8724 28.1042 32.5925 28.8459 33.543 29.386C34.4935 29.926 35.6672 30.1996 37.0714 30.1996C38.4755 30.1996 39.8004 29.9404 40.9309 29.422C42.0687 28.9035 43.0624 28.2338 43.9192 27.4058C44.7761 26.5777 45.4962 25.692 46.0795 24.7487L45.777 24.5543C45.1002 25.584 44.3369 26.4913 43.4944 27.2617C42.6519 28.0322 41.7446 28.6299 40.7725 29.0547C39.8004 29.4796 38.7851 29.6956 37.7266 29.6956C36.8985 29.6956 36.2217 29.4724 35.6888 29.0187C35.156 28.5651 34.8967 27.7226 34.8967 26.4769C34.8967 25.6416 34.9976 24.6983 35.192 23.6542C35.2928 23.1285 35.4152 22.5885 35.552 22.0484C37.1506 21.9332 38.6627 21.7316 40.0813 21.4292C41.651 21.0979 43.0336 20.6515 44.2289 20.0826C45.4242 19.521 46.3603 18.8369 47.03 18.0448C47.6996 17.2527 48.0381 16.3527 48.0381 15.359C48.0381 14.2356 47.5556 13.2923 46.5907 12.5219H46.5835ZM43.7536 15.9854C43.4656 16.7415 43.0552 17.4616 42.5079 18.1312C41.9679 18.8081 41.3198 19.4058 40.5709 19.9242C39.822 20.4499 38.9796 20.8747 38.0435 21.1987C37.2874 21.4652 36.4809 21.638 35.6312 21.7316C35.7464 21.2995 35.8688 20.8603 36.0129 20.4139C36.3729 19.3049 36.7977 18.232 37.2874 17.2095C37.777 16.187 38.3099 15.2581 38.9003 14.4229C39.4836 13.5948 40.1029 12.9323 40.7581 12.4499C41.4134 11.9674 42.0687 11.7226 42.7383 11.7226C43.2784 11.7226 43.66 11.9242 43.8688 12.3274C44.0777 12.7307 44.1857 13.1843 44.1857 13.6812C44.1857 14.4517 44.0417 15.2149 43.7608 15.9782L43.7536 15.9854Z" fill="#000006"/>
<path d="M56.117 27.1321C55.5409 27.989 54.9792 28.5939 54.4248 28.9539C53.8703 29.314 53.3375 29.494 52.8262 29.494C52.3654 29.494 52.135 29.2852 52.135 28.8675C52.135 28.7739 52.135 28.6731 52.1566 28.5651C52.171 28.4571 52.1926 28.3419 52.2142 28.2195L60.0197 0.388672H51.8253V0.741507H55.4761L48.3834 25.98C48.3402 26.16 48.297 26.3905 48.2394 26.6641C48.1818 26.9377 48.1602 27.2402 48.1602 27.5642C48.1602 28.3491 48.4482 28.9827 49.017 29.4652C49.5859 29.9476 50.4788 30.1924 51.6885 30.1924C52.711 30.1924 53.5967 29.9548 54.36 29.4868C55.1233 29.0187 55.8145 28.3059 56.4482 27.3482C57.0819 26.3977 57.7011 25.1807 58.3132 23.6974L57.9675 23.5822C57.3123 25.0871 56.7002 26.2681 56.1242 27.1249L56.117 27.1321Z" fill="#000006"/>
<path d="M91.494 23.5894C90.8531 25.0943 90.241 26.2752 89.6578 27.1321C89.0745 27.989 88.5057 28.5939 87.9584 28.9539C87.4111 29.3139 86.8711 29.494 86.3382 29.494C86.0934 29.494 85.9134 29.4292 85.8054 29.3067C85.6974 29.1843 85.6398 29.0187 85.6398 28.8243C85.6398 28.6299 85.6686 28.4283 85.719 28.2194L90.2626 11.7658H85.6182L84.394 16.5831C84.394 16.5831 84.394 16.5471 84.394 16.5327C84.394 15.6182 84.2932 14.7685 84.0916 13.9836C83.89 13.1987 83.5372 12.5651 83.0331 12.0898C82.5291 11.6146 81.8234 11.377 80.9161 11.377C79.7064 11.377 78.5111 11.737 77.3157 12.4643C76.1276 13.1915 75.0403 14.1564 74.0682 15.359C73.0889 16.5615 72.3112 17.9008 71.7352 19.3698C71.1591 20.8387 70.8711 22.3292 70.8711 23.8342C70.8711 25.7928 71.2815 27.3481 72.1168 28.4931C72.9449 29.638 74.277 30.2068 76.1132 30.2068C76.9845 30.2068 77.791 29.9764 78.5255 29.5084C79.2671 29.0475 79.944 28.4283 80.5633 27.6578C81.1825 26.8873 81.7298 26.016 82.205 25.0511C82.3346 24.7847 82.4426 24.5183 82.5651 24.2518L82.1906 26.1888C82.1618 26.3184 82.1402 26.4769 82.1186 26.6713C82.097 26.8585 82.0898 27.0745 82.0898 27.3049C82.0898 28.169 82.3418 28.8675 82.8531 29.4004C83.3643 29.9332 84.1708 30.2068 85.2653 30.2068C86.259 30.2068 87.1303 29.9692 87.8864 29.5012C88.6425 29.0331 89.3337 28.3202 89.9746 27.3626C90.6155 26.4121 91.2419 25.1951 91.8468 23.7118L91.5012 23.5966L91.494 23.5894ZM81.2113 26.1024C80.6497 27.0169 80.0376 27.7442 79.3895 28.2914C78.7343 28.8315 78.0934 29.1051 77.4526 29.1051C76.7757 29.1051 76.2428 28.8171 75.854 28.2338C75.4652 27.6506 75.2707 26.7937 75.2707 25.656C75.2707 24.6911 75.4003 23.6182 75.6668 22.4517C75.9332 21.2779 76.286 20.1114 76.7253 18.9305C77.1645 17.7568 77.6758 16.6695 78.2446 15.683C78.8135 14.6965 79.4111 13.9044 80.0376 13.2995C80.6641 12.6947 81.2761 12.3995 81.8738 12.3995C82.4282 12.3995 82.8747 12.5723 83.1987 12.9179C83.5228 13.2635 83.7532 13.746 83.89 14.3581C84.0268 14.9701 84.0916 15.683 84.0916 16.4967C84.0916 17.4904 83.9692 18.5561 83.7244 19.6938C83.4796 20.8315 83.1411 21.9548 82.7019 23.0637C82.2698 24.1726 81.7658 25.1879 81.2041 26.1024H81.2113Z" fill="#000006"/>
<path d="M123.07 12.5219C122.105 11.7586 120.751 11.377 119.016 11.377C117.28 11.377 115.812 11.7298 114.371 12.4355C112.931 13.1411 111.671 14.0988 110.591 15.3013C109.511 16.5039 108.668 17.8504 108.064 19.3409C107.459 20.8315 107.156 22.3581 107.156 23.9278C107.156 25.1303 107.394 26.2032 107.876 27.1537C108.359 28.1042 109.079 28.8459 110.029 29.386C110.98 29.926 112.154 30.1996 113.558 30.1996C114.962 30.1996 116.287 29.9404 117.417 29.422C118.555 28.9035 119.549 28.2338 120.406 27.4058C121.262 26.5777 121.983 25.692 122.566 24.7487L122.263 24.5543C121.586 25.584 120.823 26.4913 119.981 27.2617C119.138 28.0322 118.231 28.6299 117.259 29.0547C116.287 29.4796 115.271 29.6956 114.213 29.6956C113.385 29.6956 112.708 29.4724 112.175 29.0187C111.642 28.5651 111.383 27.7226 111.383 26.4769C111.383 25.6416 111.484 24.6983 111.678 23.6542C111.779 23.1285 111.902 22.5885 112.038 22.0484C113.637 21.9332 115.149 21.7316 116.568 21.4292C118.137 21.0979 119.52 20.6515 120.715 20.0826C121.911 19.521 122.847 18.8369 123.516 18.0448C124.186 17.2455 124.524 16.3527 124.524 15.359C124.524 14.2356 124.042 13.2923 123.077 12.5219H123.07ZM120.24 15.9854C119.952 16.7415 119.541 17.4616 118.994 18.1312C118.454 18.8081 117.806 19.4058 117.057 19.9242C116.308 20.4499 115.466 20.8747 114.53 21.1987C113.774 21.4652 112.967 21.638 112.118 21.7316C112.233 21.2995 112.355 20.8603 112.499 20.4139C112.859 19.3049 113.284 18.232 113.774 17.2095C114.263 16.187 114.796 15.2581 115.387 14.4229C115.97 13.5948 116.589 12.9323 117.244 12.4499C117.9 11.9674 118.555 11.7226 119.225 11.7226C119.765 11.7226 120.146 11.9242 120.355 12.3274C120.564 12.7307 120.672 13.1843 120.672 13.6812C120.672 14.4517 120.528 15.2149 120.247 15.9782L120.24 15.9854Z" fill="#000006"/>
<path d="M107.135 12.2198C106.53 11.6726 105.738 11.3989 104.759 11.3989C103.887 11.3989 103.095 11.6654 102.375 12.191C101.655 12.7239 101 13.4295 100.409 14.3152C99.819 15.2009 99.2862 16.1874 98.8181 17.2603C98.5805 17.8004 98.3645 18.3476 98.1557 18.9021L99.9702 11.7734H92.4311V12.1262H95.6282L90.8613 30.2072H95.2826L96.9315 23.7194H96.9531C97.1836 22.7905 97.4788 21.7896 97.8316 20.7095C98.1845 19.6293 98.5877 18.5636 99.0341 17.5123C99.4806 16.461 99.9918 15.4961 100.561 14.6176C101.13 13.7392 101.763 13.0479 102.454 12.5294C103.146 12.011 103.909 11.7518 104.737 11.7518C105.508 11.7518 106.134 11.939 106.631 12.2918C106.3 12.1334 105.94 12.0326 105.551 12.0326C104.175 12.0326 103.059 13.1487 103.059 14.524C103.059 15.8994 104.175 17.0155 105.551 17.0155C106.926 17.0155 108.042 15.9066 108.042 14.5168C108.042 13.3215 107.74 12.7599 107.135 12.2126V12.2198Z" fill="#000006"/>
<path d="M78.872 4.00336C78.872 3.80174 78.8432 3.59292 78.8072 3.3985C78.7208 2.91605 78.5479 2.54161 78.2815 2.13117C78.1879 1.98716 78.0799 1.84314 77.9575 1.71353C77.8927 1.63432 77.8135 1.56952 77.7415 1.49751C77.6911 1.4471 77.6407 1.3895 77.583 1.33909C77.2806 1.07267 76.9278 0.827842 76.5173 0.619021C75.7397 0.21578 74.7676 0.0141602 73.6155 0.0141602C72.2401 0.0141602 71.0376 0.266185 70.0079 0.770236C68.9782 1.27429 68.0853 1.97276 67.3292 2.86565C66.5731 3.75853 65.9395 4.79544 65.4138 5.97636C64.8882 7.15007 64.4633 8.4174 64.1393 9.76394L63.6569 11.7801H59.502V12.133H63.5704L59.2068 30.3292C58.8972 31.5965 58.5876 32.7918 58.2779 33.908C57.9755 35.0241 57.6155 36.0106 57.2194 36.8674C56.8162 37.7243 56.3337 38.394 55.7721 38.8836C55.2104 39.3733 54.5191 39.6181 53.7055 39.6181C52.7406 39.6181 51.9269 39.4309 51.2572 39.0493C50.6308 38.6892 50.1483 38.2572 49.8171 37.7459C50.2419 38.0772 50.7676 38.286 51.3508 38.286C52.7262 38.286 53.8423 37.1699 53.8423 35.7945C53.8423 34.4192 52.7262 33.3031 51.3508 33.3031C49.9755 33.3031 48.8594 34.4192 48.8594 35.7945C48.8594 36.7378 49.0538 37.2779 49.4498 37.8827C49.8459 38.4876 50.4291 38.9989 51.1996 39.4021C51.9773 39.8053 52.9422 40.007 54.1159 40.007C55.4912 40.007 56.701 39.7549 57.7451 39.2437C58.7892 38.7324 59.6965 38.034 60.4669 37.1483C61.2374 36.2626 61.8783 35.2257 62.3895 34.052C62.908 32.8782 63.3328 31.6109 63.6713 30.2644L68.0421 12.1258H73.9755V11.7729H68.1285L68.6254 9.71353C68.935 8.4318 69.2518 7.23648 69.5614 6.11317C69.8711 4.99706 70.2167 4.01056 70.5912 3.15367C70.9656 2.29679 71.4336 1.62712 71.9953 1.13747C72.5569 0.647824 73.2338 0.402999 74.0259 0.402999C75.0196 0.402999 75.8405 0.597419 76.5029 0.979057C76.6974 1.09427 76.8702 1.20948 77.0286 1.33909H77.0214C77.2014 1.47591 77.3598 1.61992 77.511 1.77114C77.511 1.77114 77.5182 1.78554 77.5254 1.78554C77.6695 1.93675 77.7991 2.10237 77.9143 2.26799C77.4894 1.93675 76.9638 1.72793 76.3805 1.72793C75.0052 1.72793 73.8891 2.84404 73.8891 4.21938C73.8891 5.59472 75.0052 6.71083 76.3805 6.71083C77.7559 6.71083 78.872 5.59472 78.872 4.21938C78.872 4.15457 78.872 4.10417 78.872 4.04656C78.872 4.03216 78.872 4.02496 78.872 4.00336Z" fill="#000006"/>
</g>
<defs>
<clipPath id="clip0_695_191">
<rect width="155.276" height="40" fill="white" transform="translate(0.505859)"/>
</clipPath>
</defs>
</svg>
